# File produced by Open Asset Import Library (http://www.assimp.sf.net)
# (assimp v5.0.1588609223)

mtllib result.mtl

# 40 vertex positions
v  2010.5837 0.75636309 0.23588562
v  2010.5837 100.75636 0.23588562
v  1793.5837 100.75636 0.23588562
v  1793.5837 0.75636309 0.23588562
v  2002.0837 100.75636 -8.2641144
v  2002.0837 200.75636 -8.2641144
v  1802.0837 200.75636 -8.2641144
v  1802.0837 100.75636 -8.2641144
v  2010.5837 0.75636309 -216.76411
v  2010.5837 100.75636 -216.76411
v  2002.0837 100.75636 -208.26411
v  2002.0837 200.75636 -208.26411
v  1793.5837 0.75636309 -216.76411
v  1793.5837 100.75636 -216.76411
v  1802.0837 100.75636 -208.26411
v  1802.0837 200.75636 -208.26411
v  1893.1719 251.37866 -82.064117
v  1893.1719 251.37866 -134.46411
v  1840.7719 251.37866 -134.46411
v  1840.7719 251.37866 -82.064117
v  2002.0837 0.75636309 -208.26411
v  2002.0837 0.75636309 -8.2641144
v  1802.0837 0.75636309 -8.2641144
v  1802.0837 0.75636309 -208.26411
v  1978.8838 221.57866 -31.464111
v  1825.2837 221.57866 -31.464111
v  1978.8838 221.57866 -185.06412
v  1825.2837 221.57866 -185.06412
v  1973.2837 221.57866 -37.064117
v  1830.8838 221.57866 -37.064117
v  1973.2837 221.57866 -179.46411
v  1830.8838 221.57866 -179.46411
v  1973.2837 215.77866 -37.064117
v  1830.8838 215.77866 -37.064117
v  1973.2837 215.77866 -179.46411
v  1830.8838 215.77866 -179.46411
v  1893.1719 215.77866 -82.064117
v  1840.7719 215.77866 -82.064117
v  1893.1719 215.77866 -134.46411
v  1840.7719 215.77866 -134.46411

# 0 UV coordinates

# 10 vertex normals
vn 0 0 1
vn 1 0 0
vn 0 0 -1
vn -1 0 0
vn 0 1 0
vn 0 -1 0
vn 0 0.74421388 0.66794139
vn 0.66794139 0.74421388 0
vn 0 0.74421388 -0.66794139
vn -0.66794139 0.74421388 0

# Mesh 'Highrise_8' with 38 faces
g Highrise_8
usemtl lambert1
f  1//1 2//1 3//1 4//1
f  5//1 6//1 7//1 8//1
f  9//2 10//2 2//2 1//2
f  11//2 12//2 6//2 5//2
f  13//3 14//3 10//3 9//3
f  15//3 16//3 12//3 11//3
f  4//4 3//4 14//4 13//4
f  8//4 7//4 16//4 15//4
f  17//5 18//5 19//5 20//5
f  21//6 22//6 23//6 24//6
f  22//6 1//6 4//6 23//6
f  8//5 3//5 2//5 5//5
f  21//6 9//6 1//6 22//6
f  5//5 2//5 10//5 11//5
f  24//6 13//6 9//6 21//6
f  11//5 10//5 14//5 15//5
f  23//6 4//6 13//6 24//6
f  15//5 14//5 3//5 8//5
f  6//7 25//7 26//7 7//7
f  12//8 27//8 25//8 6//8
f  16//9 28//9 27//9 12//9
f  7//10 26//10 28//10 16//10
f  25//5 29//5 30//5 26//5
f  27//5 31//5 29//5 25//5
f  28//5 32//5 31//5 27//5
f  26//5 30//5 32//5 28//5
f  29//3 33//3 34//3 30//3
f  31//4 35//4 33//4 29//4
f  32//1 36//1 35//1 31//1
f  30//2 34//2 36//2 32//2
f  33//5 37//5 38//5 34//5
f  35//5 39//5 37//5 33//5
f  36//5 40//5 39//5 35//5
f  34//5 38//5 40//5 36//5
f  37//1 17//1 20//1 38//1
f  39//2 18//2 17//2 37//2
f  40//3 19//3 18//3 39//3
f  38//4 20//4 19//4 40//4

