# File produced by Open Asset Import Library (http://www.assimp.sf.net)
# (assimp v5.0.1588609223)

mtllib result.mtl

# 68 vertex positions
v  899.75226 21.071617 0.32321167
v  899.75226 382.86957 0.32321167
v  763.35223 382.86957 0.32321167
v  763.35223 21.071617 0.32321167
v  899.75226 21.071617 -136.07678
v  899.75226 382.86957 -136.07678
v  763.35223 21.071617 -136.07678
v  763.35223 382.86957 -136.07678
v  818.03638 500.96957 -43.333218
v  818.03638 500.96957 -48.922817
v  804.50916 500.96957 -48.922817
v  804.50916 500.96957 -43.333218
v  899.75226 0.27161646 -136.07678
v  899.75226 0.27161646 0.32321167
v  763.35223 0.27161646 0.32321167
v  763.35223 0.27161646 -136.07678
v  768.25226 398.96957 -4.576786
v  768.25226 387.56958 -4.576786
v  894.85223 387.56958 -4.576786
v  894.85223 398.96957 -4.576786
v  894.85223 387.56958 -131.17679
v  894.85223 398.96957 -131.17679
v  768.25226 387.56958 -131.17679
v  768.25226 398.96957 -131.17679
v  899.75226 403.66959 0.32321167
v  889.35223 403.66959 -10.076786
v  773.75226 403.66959 -10.076786
v  763.35223 403.66959 0.32321167
v  899.75226 403.66959 -136.07678
v  889.35223 403.66959 -125.67679
v  763.35223 403.66959 -136.07678
v  773.75226 403.66959 -125.67679
v  889.35223 415.76959 -10.076786
v  773.75226 415.76959 -10.076786
v  889.35223 415.76959 -125.67679
v  773.75226 415.76959 -125.67679
v  763.35223 398.96957 0.32321167
v  899.75226 398.96957 0.32321167
v  899.75226 387.56958 0.32321167
v  763.35223 387.56958 0.32321167
v  899.75226 398.96957 -136.07678
v  899.75226 387.56958 -136.07678
v  763.35223 398.96957 -136.07678
v  763.35223 387.56958 -136.07678
v  877.263 415.76959 -17.728016
v  785.84149 415.76959 -17.728016
v  877.263 415.76959 -74.528015
v  785.84149 415.76959 -74.528015
v  877.263 429.96957 -17.728016
v  785.84149 429.96957 -17.728016
v  877.263 429.96957 -74.528015
v  785.84149 429.96957 -74.528015
v  874.84033 433.06958 -19.233219
v  788.26416 433.06958 -19.233219
v  874.84033 433.06958 -73.02282
v  788.26416 433.06958 -73.02282
v  822.33636 433.06958 -39.033218
v  800.20917 433.06958 -39.033218
v  822.33636 433.06958 -53.222816
v  800.20917 433.06958 -53.222816
v  822.33636 448.06958 -39.033218
v  800.20917 448.06958 -39.033218
v  822.33636 448.06958 -53.222816
v  800.20917 448.06958 -53.222816
v  818.03638 448.06958 -43.333218
v  804.50916 448.06958 -43.333218
v  818.03638 448.06958 -48.922817
v  804.50916 448.06958 -48.922817

# 0 UV coordinates

# 11 vertex normals
vn 0 0 1
vn 1 0 0
vn 0 0 -1
vn -1 0 0
vn 0 1 0
vn 0 -1 0
vn 0 0 0
vn 0 0.43678319 0.89956683
vn 0.78792626 0.61576962 0
vn 0 0.43678319 -0.89956683
vn -0.78792626 0.61576962 0

# Mesh 'Highrise_1' with 74 faces
g Highrise_1
usemtl lambert1
f  1//1 2//1 3//1 4//1
f  5//2 6//2 2//2 1//2
f  7//3 8//3 6//3 5//3
f  4//4 3//4 8//4 7//4
f  9//5 10//5 11//5 12//5
f  13//6 14//6 15//6 16//6
f  14//1 1//1 4//1 15//1
f  17//1 18//1 19//1 20//1
f  13//2 5//2 1//2 14//2
f  20//2 19//2 21//2 22//2
f  16//3 7//3 5//3 13//3
f  22//3 21//3 23//3 24//3
f  15//4 4//4 7//4 16//4
f  24//4 23//4 18//4 17//4
f  25//5 26//5 27//5 28//5
f  29//5 30//5 26//5 25//5
f  31//5 32//5 30//5 29//5
f  28//5 27//5 32//5 31//5
f  26//1 33//1 34//1 27//1
f  30//2 35//2 33//2 26//2
f  32//3 36//3 35//3 30//3
f  27//4 34//4 36//4 32//4
f  28//1 37//1 38//1 25//1
f  2//1 39//1 40//1 3//1
f  25//2 38//2 41//2 29//2
f  6//2 42//2 39//2 2//2
f  29//3 41//3 43//3 31//3
f  8//3 44//3 42//3 6//3
f  31//4 43//4 37//4 28//4
f  3//4 40//4 44//4 8//4
f  37//6 17//6 20//6 38//6
f  39//5 19//5 18//5 40//5
f  38//6 20//6 22//6 41//6
f  42//5 21//5 19//5 39//5
f  41//6 22//6 24//6 43//6
f  44//5 23//5 21//5 42//5
f  43//6 24//6 17//6 37//6
f  40//5 18//5 23//5 44//5
f  17//7 17//7 20//7 20//7
f  19//7 19//7 18//7 18//7
f  20//7 20//7 22//7 22//7
f  21//7 21//7 19//7 19//7
f  22//7 22//7 24//7 24//7
f  23//7 23//7 21//7 21//7
f  24//7 24//7 17//7 17//7
f  18//7 18//7 23//7 23//7
f  33//5 45//5 46//5 34//5
f  35//5 47//5 45//5 33//5
f  36//5 48//5 47//5 35//5
f  34//5 46//5 48//5 36//5
f  45//1 49//1 50//1 46//1
f  47//2 51//2 49//2 45//2
f  48//3 52//3 51//3 47//3
f  46//4 50//4 52//4 48//4
f  49//8 53//8 54//8 50//8
f  51//9 55//9 53//9 49//9
f  52//10 56//10 55//10 51//10
f  50//11 54//11 56//11 52//11
f  53//5 57//5 58//5 54//5
f  55//5 59//5 57//5 53//5
f  56//5 60//5 59//5 55//5
f  54//5 58//5 60//5 56//5
f  57//1 61//1 62//1 58//1
f  59//2 63//2 61//2 57//2
f  60//3 64//3 63//3 59//3
f  58//4 62//4 64//4 60//4
f  61//5 65//5 66//5 62//5
f  63//5 67//5 65//5 61//5
f  64//5 68//5 67//5 63//5
f  62//5 66//5 68//5 64//5
f  65//1 9//1 12//1 66//1
f  67//2 10//2 9//2 65//2
f  68//3 11//3 10//3 67//3
f  66//4 12//4 11//4 68//4

