# File produced by Open Asset Import Library (http://www.assimp.sf.net)
# (assimp v5.0.1588609223)

mtllib result.mtl

# 356 vertex positions
v  -197.60287 7.6279526 -0.68234253
v  -197.60287 308.64584 -0.68234253
v  -226.40289 308.64584 -0.68234253
v  -226.40289 7.6279526 -0.68234253
v  -157.60289 7.6279526 -0.68234253
v  -157.60289 308.64584 -0.68234253
v  -186.40289 308.64584 -0.68234253
v  -186.40289 7.6279526 -0.68234253
v  -117.60288 7.6279526 -0.68234253
v  -117.60288 308.64584 -0.68234253
v  -146.40288 308.64584 -0.68234253
v  -146.40288 7.6279526 -0.68234253
v  -77.602882 7.6279526 -0.68234253
v  -77.602882 308.64584 -0.68234253
v  -106.40289 308.64584 -0.68234253
v  -106.40289 7.6279526 -0.68234253
v  -37.602882 7.6279526 -0.68234253
v  -37.602882 308.64584 -0.68234253
v  -66.402885 308.64584 -0.68234253
v  -66.402885 7.6279526 -0.68234253
v  -27.302887 7.6279526 -39.782341
v  -27.302887 308.64584 -39.782341
v  -27.302887 308.64584 -10.982338
v  -27.302887 7.6279526 -10.982338
v  -27.302887 7.6279526 -79.782341
v  -27.302887 308.64584 -79.782341
v  -27.302887 308.64584 -50.982338
v  -27.302887 7.6279526 -50.982338
v  -27.302887 7.6279526 -119.78234
v  -27.302887 308.64584 -119.78234
v  -27.302887 308.64584 -90.982338
v  -27.302887 7.6279526 -90.982338
v  -27.302887 7.6279526 -159.78235
v  -27.302887 308.64584 -159.78235
v  -27.302887 308.64584 -130.98235
v  -27.302887 7.6279526 -130.98235
v  -27.302887 7.6279526 -199.78235
v  -27.302887 308.64584 -199.78235
v  -27.302887 308.64584 -170.98233
v  -27.302887 7.6279526 -170.98233
v  -66.402885 7.6279526 -210.08234
v  -66.402885 308.64584 -210.08234
v  -37.602882 308.64584 -210.08234
v  -37.602882 7.6279526 -210.08234
v  -106.40289 7.6279526 -210.08234
v  -106.40289 308.64584 -210.08234
v  -77.602882 308.64584 -210.08234
v  -77.602882 7.6279526 -210.08234
v  -146.40288 7.6279526 -210.08234
v  -146.40288 308.64584 -210.08234
v  -117.60288 308.64584 -210.08234
v  -117.60288 7.6279526 -210.08234
v  -186.40289 7.6279526 -210.08234
v  -186.40289 308.64584 -210.08234
v  -157.60289 308.64584 -210.08234
v  -157.60289 7.6279526 -210.08234
v  -226.40289 7.6279526 -210.08234
v  -226.40289 308.64584 -210.08234
v  -197.60287 308.64584 -210.08234
v  -197.60287 7.6279526 -210.08234
v  -236.70288 7.6279526 -170.98233
v  -236.70288 308.64584 -170.98233
v  -236.70288 308.64584 -199.78235
v  -236.70288 7.6279526 -199.78235
v  -236.70288 7.6279526 -130.98235
v  -236.70288 308.64584 -130.98235
v  -236.70288 308.64584 -159.78235
v  -236.70288 7.6279526 -159.78235
v  -236.70288 7.6279526 -90.982338
v  -236.70288 308.64584 -90.982338
v  -236.70288 308.64584 -119.78234
v  -236.70288 7.6279526 -119.78234
v  -236.70288 7.6279526 -50.982338
v  -236.70288 308.64584 -50.982338
v  -236.70288 308.64584 -79.782341
v  -236.70288 7.6279526 -79.782341
v  -236.70288 7.6279526 -10.982338
v  -236.70288 308.64584 -10.982338
v  -236.70288 308.64584 -39.782341
v  -236.70288 7.6279526 -39.782341
v  -192.00288 321.84586 -5.3823395
v  -192.00288 321.84586 -45.382339
v  -232.00288 321.84586 -45.382339
v  -232.00288 321.84586 -5.3823395
v  -152.00288 321.84586 -5.3823395
v  -152.00288 321.84586 -45.382339
v  -112.00288 321.84586 -5.3823395
v  -112.00288 321.84586 -45.382339
v  -72.002884 321.84586 -5.3823395
v  -72.002884 321.84586 -45.382339
v  -32.002884 321.84586 -5.3823395
v  -32.002884 321.84586 -45.382339
v  -192.00288 321.84586 -85.382339
v  -232.00288 321.84586 -85.382339
v  -152.00288 321.84586 -85.382339
v  -112.00288 339.14584 -45.382339
v  -112.00288 339.14584 -85.382339
v  -152.00288 339.14584 -85.382339
v  -152.00288 339.14584 -45.382339
v  -72.002884 339.14584 -45.382339
v  -72.002884 339.14584 -85.382339
v  -32.002884 321.84586 -85.382339
v  -72.002884 321.84586 -85.382339
v  -192.00288 321.84586 -125.38234
v  -232.00288 321.84586 -125.38234
v  -152.00288 321.84586 -125.38234
v  -128.90288 416.24585 -102.28234
v  -128.90288 416.24585 -108.48234
v  -135.10289 416.24585 -108.48234
v  -135.10289 416.24585 -102.28234
v  -72.002884 339.14584 -125.38234
v  -112.00288 339.14584 -125.38234
v  -32.002884 321.84586 -125.38234
v  -72.002884 321.84586 -125.38234
v  -192.00288 321.84586 -165.38234
v  -232.00288 321.84586 -165.38234
v  -152.00288 321.84586 -165.38234
v  -112.00288 321.84586 -125.38234
v  -112.00288 321.84586 -165.38234
v  -72.002884 321.84586 -165.38234
v  -32.002884 321.84586 -165.38234
v  -192.00288 321.84586 -205.38234
v  -232.00288 321.84586 -205.38234
v  -152.00288 321.84586 -205.38234
v  -112.00288 321.84586 -205.38234
v  -72.002884 321.84586 -205.38234
v  -32.002884 321.84586 -205.38234
v  -192.00288 2.0279527 -205.38234
v  -192.00288 2.0279527 -165.38234
v  -232.00288 2.0279527 -165.38234
v  -232.00288 2.0279527 -205.38234
v  -152.00288 2.0279527 -205.38234
v  -152.00288 2.0279527 -165.38234
v  -112.00288 2.0279527 -205.38234
v  -112.00288 2.0279527 -165.38234
v  -72.002884 2.0279527 -205.38234
v  -72.002884 2.0279527 -165.38234
v  -32.002884 2.0279527 -205.38234
v  -32.002884 2.0279527 -165.38234
v  -192.00288 2.0279527 -125.38234
v  -232.00288 2.0279527 -125.38234
v  -152.00288 2.0279527 -125.38234
v  -112.00288 2.0279527 -125.38234
v  -72.002884 2.0279527 -125.38234
v  -32.002884 2.0279527 -125.38234
v  -192.00288 2.0279527 -85.382339
v  -232.00288 2.0279527 -85.382339
v  -152.00288 2.0279527 -85.382339
v  -112.00288 2.0279527 -85.382339
v  -72.002884 2.0279527 -85.382339
v  -32.002884 2.0279527 -85.382339
v  -192.00288 2.0279527 -45.382339
v  -232.00288 2.0279527 -45.382339
v  -152.00288 2.0279527 -45.382339
v  -112.00288 2.0279527 -45.382339
v  -72.002884 2.0279527 -45.382339
v  -32.002884 2.0279527 -45.382339
v  -192.00288 2.0279527 -5.3823395
v  -232.00288 2.0279527 -5.3823395
v  -152.00288 2.0279527 -5.3823395
v  -112.00288 2.0279527 -5.3823395
v  -72.002884 2.0279527 -5.3823395
v  -32.002884 2.0279527 -5.3823395
v  -192.00288 314.24585 -1.6823425
v  -192.00288 321.84586 -1.6823425
v  -235.70288 321.84586 -1.6823425
v  -235.70288 314.24585 -1.6823425
v  -235.70288 321.84586 -45.382339
v  -235.70288 314.24585 -45.382339
v  -152.00288 314.24585 -1.6823425
v  -152.00288 321.84586 -1.6823425
v  -112.00288 314.24585 -1.6823425
v  -112.00288 321.84586 -1.6823425
v  -72.002884 314.24585 -1.6823425
v  -72.002884 321.84586 -1.6823425
v  -28.302887 314.24585 -1.6823425
v  -28.302887 321.84586 -1.6823425
v  -28.302887 314.24585 -45.382339
v  -28.302887 321.84586 -45.382339
v  -235.70288 321.84586 -85.382339
v  -235.70288 314.24585 -85.382339
v  -28.302887 314.24585 -85.382339
v  -28.302887 321.84586 -85.382339
v  -235.70288 321.84586 -125.38234
v  -235.70288 314.24585 -125.38234
v  -28.302887 314.24585 -125.38234
v  -28.302887 321.84586 -125.38234
v  -235.70288 321.84586 -165.38234
v  -235.70288 314.24585 -165.38234
v  -28.302887 314.24585 -165.38234
v  -28.302887 321.84586 -165.38234
v  -235.70288 314.24585 -209.08234
v  -235.70288 321.84586 -209.08234
v  -192.00288 321.84586 -209.08234
v  -192.00288 314.24585 -209.08234
v  -152.00288 321.84586 -209.08234
v  -152.00288 314.24585 -209.08234
v  -112.00288 321.84586 -209.08234
v  -112.00288 314.24585 -209.08234
v  -72.002884 321.84586 -209.08234
v  -72.002884 314.24585 -209.08234
v  -28.302887 314.24585 -209.08234
v  -28.302887 321.84586 -209.08234
v  -192.00288 314.24585 -5.3823395
v  -232.00288 314.24585 -5.3823395
v  -232.00288 329.24585 -5.3823395
v  -235.70288 329.24585 -1.6823425
v  -192.00288 329.24585 -1.6823425
v  -192.00288 329.24585 -5.3823395
v  -232.00288 314.24585 -45.382339
v  -232.00288 329.24585 -45.382339
v  -235.70288 329.24585 -45.382339
v  -152.00288 314.24585 -5.3823395
v  -152.00288 329.24585 -1.6823425
v  -152.00288 329.24585 -5.3823395
v  -112.00288 314.24585 -5.3823395
v  -112.00288 329.24585 -1.6823425
v  -112.00288 329.24585 -5.3823395
v  -72.002884 314.24585 -5.3823395
v  -72.002884 329.24585 -1.6823425
v  -72.002884 329.24585 -5.3823395
v  -32.002884 314.24585 -5.3823395
v  -28.302887 329.24585 -1.6823425
v  -32.002884 329.24585 -5.3823395
v  -32.002884 314.24585 -45.382339
v  -28.302887 329.24585 -45.382339
v  -32.002884 329.24585 -45.382339
v  -232.00288 314.24585 -85.382339
v  -232.00288 329.24585 -85.382339
v  -235.70288 329.24585 -85.382339
v  -32.002884 314.24585 -85.382339
v  -28.302887 329.24585 -85.382339
v  -32.002884 329.24585 -85.382339
v  -232.00288 314.24585 -125.38234
v  -232.00288 329.24585 -125.38234
v  -235.70288 329.24585 -125.38234
v  -32.002884 314.24585 -125.38234
v  -28.302887 329.24585 -125.38234
v  -32.002884 329.24585 -125.38234
v  -232.00288 314.24585 -165.38234
v  -232.00288 329.24585 -165.38234
v  -235.70288 329.24585 -165.38234
v  -32.002884 314.24585 -165.38234
v  -28.302887 329.24585 -165.38234
v  -32.002884 329.24585 -165.38234
v  -232.00288 314.24585 -205.38234
v  -192.00288 314.24585 -205.38234
v  -192.00288 329.24585 -205.38234
v  -192.00288 329.24585 -209.08234
v  -235.70288 329.24585 -209.08234
v  -232.00288 329.24585 -205.38234
v  -152.00288 314.24585 -205.38234
v  -152.00288 329.24585 -205.38234
v  -152.00288 329.24585 -209.08234
v  -112.00288 314.24585 -205.38234
v  -112.00288 329.24585 -205.38234
v  -112.00288 329.24585 -209.08234
v  -72.002884 314.24585 -205.38234
v  -72.002884 329.24585 -205.38234
v  -72.002884 329.24585 -209.08234
v  -32.002884 314.24585 -205.38234
v  -28.302887 329.24585 -209.08234
v  -32.002884 329.24585 -205.38234
v  -152.00288 339.14584 -125.38234
v  -122.60288 339.14584 -95.982338
v  -141.40288 339.14584 -95.982338
v  -122.60288 339.14584 -114.78234
v  -141.40288 339.14584 -114.78234
v  -122.60288 358.84586 -95.982338
v  -141.40288 358.84586 -95.982338
v  -122.60288 358.84586 -114.78234
v  -141.40288 358.84586 -114.78234
v  -128.90288 358.84586 -102.28234
v  -135.10289 358.84586 -102.28234
v  -128.90288 358.84586 -108.48234
v  -135.10289 358.84586 -108.48234
v  -197.60287 7.6279526 -5.3823395
v  -226.40289 7.6279526 -5.3823395
v  -197.60287 308.64584 -5.3823395
v  -226.40289 308.64584 -5.3823395
v  -157.60289 7.6279526 -5.3823395
v  -186.40289 7.6279526 -5.3823395
v  -157.60289 308.64584 -5.3823395
v  -186.40289 308.64584 -5.3823395
v  -117.60288 7.6279526 -5.3823395
v  -146.40288 7.6279526 -5.3823395
v  -117.60288 308.64584 -5.3823395
v  -146.40288 308.64584 -5.3823395
v  -77.602882 7.6279526 -5.3823395
v  -106.40289 7.6279526 -5.3823395
v  -77.602882 308.64584 -5.3823395
v  -106.40289 308.64584 -5.3823395
v  -37.602882 7.6279526 -5.3823395
v  -66.402885 7.6279526 -5.3823395
v  -37.602882 308.64584 -5.3823395
v  -66.402885 308.64584 -5.3823395
v  -32.002884 7.6279526 -39.782341
v  -32.002884 7.6279526 -10.982338
v  -32.002884 308.64584 -39.782341
v  -32.002884 308.64584 -10.982338
v  -32.002884 7.6279526 -79.782341
v  -32.002884 7.6279526 -50.982338
v  -32.002884 308.64584 -79.782341
v  -32.002884 308.64584 -50.982338
v  -32.002884 7.6279526 -119.78234
v  -32.002884 7.6279526 -90.982338
v  -32.002884 308.64584 -119.78234
v  -32.002884 308.64584 -90.982338
v  -32.002884 7.6279526 -159.78235
v  -32.002884 7.6279526 -130.98235
v  -32.002884 308.64584 -159.78235
v  -32.002884 308.64584 -130.98235
v  -32.002884 7.6279526 -199.78235
v  -32.002884 7.6279526 -170.98233
v  -32.002884 308.64584 -199.78235
v  -32.002884 308.64584 -170.98233
v  -66.402885 7.6279526 -205.38234
v  -37.602882 7.6279526 -205.38234
v  -66.402885 308.64584 -205.38234
v  -37.602882 308.64584 -205.38234
v  -106.40289 7.6279526 -205.38234
v  -77.602882 7.6279526 -205.38234
v  -106.40289 308.64584 -205.38234
v  -77.602882 308.64584 -205.38234
v  -146.40288 7.6279526 -205.38234
v  -117.60288 7.6279526 -205.38234
v  -146.40288 308.64584 -205.38234
v  -117.60288 308.64584 -205.38234
v  -186.40289 7.6279526 -205.38234
v  -157.60289 7.6279526 -205.38234
v  -186.40289 308.64584 -205.38234
v  -157.60289 308.64584 -205.38234
v  -226.40289 7.6279526 -205.38234
v  -197.60287 7.6279526 -205.38234
v  -226.40289 308.64584 -205.38234
v  -197.60287 308.64584 -205.38234
v  -232.00288 7.6279526 -170.98233
v  -232.00288 7.6279526 -199.78235
v  -232.00288 308.64584 -170.98233
v  -232.00288 308.64584 -199.78235
v  -232.00288 7.6279526 -130.98235
v  -232.00288 7.6279526 -159.78235
v  -232.00288 308.64584 -130.98235
v  -232.00288 308.64584 -159.78235
v  -232.00288 7.6279526 -90.982338
v  -232.00288 7.6279526 -119.78234
v  -232.00288 308.64584 -90.982338
v  -232.00288 308.64584 -119.78234
v  -232.00288 7.6279526 -50.982338
v  -232.00288 7.6279526 -79.782341
v  -232.00288 308.64584 -50.982338
v  -232.00288 308.64584 -79.782341
v  -232.00288 7.6279526 -10.982338
v  -232.00288 7.6279526 -39.782341
v  -232.00288 308.64584 -10.982338
v  -232.00288 308.64584 -39.782341

# 0 UV coordinates

# 6 vertex normals
vn 0 0 1
vn 1 0 0
vn 0 0 -1
vn -1 0 0
vn 0 1 0
vn 0 -1 0

# Mesh 'Highrise_6' with 354 faces
g Highrise_6
usemtl lambert1
f  1//1 2//1 3//1 4//1
f  5//1 6//1 7//1 8//1
f  9//1 10//1 11//1 12//1
f  13//1 14//1 15//1 16//1
f  17//1 18//1 19//1 20//1
f  21//2 22//2 23//2 24//2
f  25//2 26//2 27//2 28//2
f  29//2 30//2 31//2 32//2
f  33//2 34//2 35//2 36//2
f  37//2 38//2 39//2 40//2
f  41//3 42//3 43//3 44//3
f  45//3 46//3 47//3 48//3
f  49//3 50//3 51//3 52//3
f  53//3 54//3 55//3 56//3
f  57//3 58//3 59//3 60//3
f  61//4 62//4 63//4 64//4
f  65//4 66//4 67//4 68//4
f  69//4 70//4 71//4 72//4
f  73//4 74//4 75//4 76//4
f  77//4 78//4 79//4 80//4
f  81//5 82//5 83//5 84//5
f  85//5 86//5 82//5 81//5
f  87//5 88//5 86//5 85//5
f  89//5 90//5 88//5 87//5
f  91//5 92//5 90//5 89//5
f  82//5 93//5 94//5 83//5
f  86//5 95//5 93//5 82//5
f  96//5 97//5 98//5 99//5
f  100//5 101//5 97//5 96//5
f  92//5 102//5 103//5 90//5
f  93//5 104//5 105//5 94//5
f  95//5 106//5 104//5 93//5
f  107//5 108//5 109//5 110//5
f  101//5 111//5 112//5 97//5
f  102//5 113//5 114//5 103//5
f  104//5 115//5 116//5 105//5
f  106//5 117//5 115//5 104//5
f  118//5 119//5 117//5 106//5
f  114//5 120//5 119//5 118//5
f  113//5 121//5 120//5 114//5
f  115//5 122//5 123//5 116//5
f  117//5 124//5 122//5 115//5
f  119//5 125//5 124//5 117//5
f  120//5 126//5 125//5 119//5
f  121//5 127//5 126//5 120//5
f  128//6 129//6 130//6 131//6
f  132//6 133//6 129//6 128//6
f  134//6 135//6 133//6 132//6
f  136//6 137//6 135//6 134//6
f  138//6 139//6 137//6 136//6
f  129//6 140//6 141//6 130//6
f  133//6 142//6 140//6 129//6
f  135//6 143//6 142//6 133//6
f  137//6 144//6 143//6 135//6
f  139//6 145//6 144//6 137//6
f  140//6 146//6 147//6 141//6
f  142//6 148//6 146//6 140//6
f  143//6 149//6 148//6 142//6
f  144//6 150//6 149//6 143//6
f  145//6 151//6 150//6 144//6
f  146//6 152//6 153//6 147//6
f  148//6 154//6 152//6 146//6
f  149//6 155//6 154//6 148//6
f  150//6 156//6 155//6 149//6
f  151//6 157//6 156//6 150//6
f  152//6 158//6 159//6 153//6
f  154//6 160//6 158//6 152//6
f  155//6 161//6 160//6 154//6
f  156//6 162//6 161//6 155//6
f  157//6 163//6 162//6 156//6
f  164//1 165//1 166//1 167//1
f  167//4 166//4 168//4 169//4
f  170//1 171//1 165//1 164//1
f  172//1 173//1 171//1 170//1
f  174//1 175//1 173//1 172//1
f  176//1 177//1 175//1 174//1
f  178//2 179//2 177//2 176//2
f  169//4 168//4 180//4 181//4
f  182//2 183//2 179//2 178//2
f  181//4 180//4 184//4 185//4
f  186//2 187//2 183//2 182//2
f  185//4 184//4 188//4 189//4
f  190//2 191//2 187//2 186//2
f  192//3 193//3 194//3 195//3
f  189//4 188//4 193//4 192//4
f  195//3 194//3 196//3 197//3
f  197//3 196//3 198//3 199//3
f  199//3 198//3 200//3 201//3
f  202//2 203//2 191//2 190//2
f  201//3 200//3 203//3 202//3
f  204//6 164//6 167//6 205//6
f  206//5 207//5 208//5 209//5
f  205//6 167//6 169//6 210//6
f  211//5 212//5 207//5 206//5
f  213//6 170//6 164//6 204//6
f  209//5 208//5 214//5 215//5
f  216//6 172//6 170//6 213//6
f  215//5 214//5 217//5 218//5
f  219//6 174//6 172//6 216//6
f  218//5 217//5 220//5 221//5
f  222//6 176//6 174//6 219//6
f  221//5 220//5 223//5 224//5
f  225//6 178//6 176//6 222//6
f  224//5 223//5 226//5 227//5
f  210//6 169//6 181//6 228//6
f  229//5 230//5 212//5 211//5
f  231//6 182//6 178//6 225//6
f  227//5 226//5 232//5 233//5
f  228//6 181//6 185//6 234//6
f  235//5 236//5 230//5 229//5
f  237//6 186//6 182//6 231//6
f  233//5 232//5 238//5 239//5
f  234//6 185//6 189//6 240//6
f  241//5 242//5 236//5 235//5
f  243//6 190//6 186//6 237//6
f  239//5 238//5 244//5 245//5
f  246//6 192//6 195//6 247//6
f  248//5 249//5 250//5 251//5
f  240//6 189//6 192//6 246//6
f  251//5 250//5 242//5 241//5
f  247//6 195//6 197//6 252//6
f  253//5 254//5 249//5 248//5
f  252//6 197//6 199//6 255//6
f  256//5 257//5 254//5 253//5
f  255//6 199//6 201//6 258//6
f  259//5 260//5 257//5 256//5
f  261//6 202//6 190//6 243//6
f  245//5 244//5 262//5 263//5
f  258//6 201//6 202//6 261//6
f  263//5 262//5 260//5 259//5
f  84//3 206//3 209//3 81//3
f  165//1 208//1 207//1 166//1
f  83//2 211//2 206//2 84//2
f  166//4 207//4 212//4 168//4
f  81//3 209//3 215//3 85//3
f  171//1 214//1 208//1 165//1
f  85//3 215//3 218//3 87//3
f  173//1 217//1 214//1 171//1
f  87//3 218//3 221//3 89//3
f  175//1 220//1 217//1 173//1
f  89//3 221//3 224//3 91//3
f  177//1 223//1 220//1 175//1
f  91//4 224//4 227//4 92//4
f  179//2 226//2 223//2 177//2
f  94//2 229//2 211//2 83//2
f  168//4 212//4 230//4 180//4
f  92//4 227//4 233//4 102//4
f  183//2 232//2 226//2 179//2
f  105//2 235//2 229//2 94//2
f  180//4 230//4 236//4 184//4
f  102//4 233//4 239//4 113//4
f  187//2 238//2 232//2 183//2
f  116//2 241//2 235//2 105//2
f  184//4 236//4 242//4 188//4
f  113//4 239//4 245//4 121//4
f  191//2 244//2 238//2 187//2
f  122//1 248//1 251//1 123//1
f  193//3 250//3 249//3 194//3
f  123//2 251//2 241//2 116//2
f  188//4 242//4 250//4 193//4
f  124//1 253//1 248//1 122//1
f  194//3 249//3 254//3 196//3
f  125//1 256//1 253//1 124//1
f  196//3 254//3 257//3 198//3
f  126//1 259//1 256//1 125//1
f  198//3 257//3 260//3 200//3
f  121//4 245//4 263//4 127//4
f  203//2 262//2 244//2 191//2
f  127//1 263//1 259//1 126//1
f  200//3 260//3 262//3 203//3
f  88//1 96//1 99//1 86//1
f  86//4 99//4 98//4 95//4
f  90//1 100//1 96//1 88//1
f  103//2 101//2 100//2 90//2
f  106//3 264//3 112//3 118//3
f  95//4 98//4 264//4 106//4
f  114//2 111//2 101//2 103//2
f  118//3 112//3 111//3 114//3
f  97//5 265//5 266//5 98//5
f  112//5 267//5 265//5 97//5
f  264//5 268//5 267//5 112//5
f  98//5 266//5 268//5 264//5
f  265//1 269//1 270//1 266//1
f  267//2 271//2 269//2 265//2
f  268//3 272//3 271//3 267//3
f  266//4 270//4 272//4 268//4
f  269//5 273//5 274//5 270//5
f  271//5 275//5 273//5 269//5
f  272//5 276//5 275//5 271//5
f  270//5 274//5 276//5 272//5
f  273//1 107//1 110//1 274//1
f  275//2 108//2 107//2 273//2
f  276//3 109//3 108//3 275//3
f  274//4 110//4 109//4 276//4
f  158//1 277//1 278//1 159//1
f  204//1 279//1 277//1 158//1
f  205//1 280//1 279//1 204//1
f  159//1 278//1 280//1 205//1
f  160//1 281//1 282//1 158//1
f  213//1 283//1 281//1 160//1
f  204//1 284//1 283//1 213//1
f  158//1 282//1 284//1 204//1
f  161//1 285//1 286//1 160//1
f  216//1 287//1 285//1 161//1
f  213//1 288//1 287//1 216//1
f  160//1 286//1 288//1 213//1
f  162//1 289//1 290//1 161//1
f  219//1 291//1 289//1 162//1
f  216//1 292//1 291//1 219//1
f  161//1 290//1 292//1 216//1
f  163//1 293//1 294//1 162//1
f  222//1 295//1 293//1 163//1
f  219//1 296//1 295//1 222//1
f  162//1 294//1 296//1 219//1
f  157//2 297//2 298//2 163//2
f  225//2 299//2 297//2 157//2
f  222//2 300//2 299//2 225//2
f  163//2 298//2 300//2 222//2
f  151//2 301//2 302//2 157//2
f  231//2 303//2 301//2 151//2
f  225//2 304//2 303//2 231//2
f  157//2 302//2 304//2 225//2
f  145//2 305//2 306//2 151//2
f  237//2 307//2 305//2 145//2
f  231//2 308//2 307//2 237//2
f  151//2 306//2 308//2 231//2
f  139//2 309//2 310//2 145//2
f  243//2 311//2 309//2 139//2
f  237//2 312//2 311//2 243//2
f  145//2 310//2 312//2 237//2
f  138//2 313//2 314//2 139//2
f  261//2 315//2 313//2 138//2
f  243//2 316//2 315//2 261//2
f  139//2 314//2 316//2 243//2
f  136//3 317//3 318//3 138//3
f  258//3 319//3 317//3 136//3
f  261//3 320//3 319//3 258//3
f  138//3 318//3 320//3 261//3
f  134//3 321//3 322//3 136//3
f  255//3 323//3 321//3 134//3
f  258//3 324//3 323//3 255//3
f  136//3 322//3 324//3 258//3
f  132//3 325//3 326//3 134//3
f  252//3 327//3 325//3 132//3
f  255//3 328//3 327//3 252//3
f  134//3 326//3 328//3 255//3
f  128//3 329//3 330//3 132//3
f  247//3 331//3 329//3 128//3
f  252//3 332//3 331//3 247//3
f  132//3 330//3 332//3 252//3
f  131//3 333//3 334//3 128//3
f  246//3 335//3 333//3 131//3
f  247//3 336//3 335//3 246//3
f  128//3 334//3 336//3 247//3
f  130//4 337//4 338//4 131//4
f  240//4 339//4 337//4 130//4
f  246//4 340//4 339//4 240//4
f  131//4 338//4 340//4 246//4
f  141//4 341//4 342//4 130//4
f  234//4 343//4 341//4 141//4
f  240//4 344//4 343//4 234//4
f  130//4 342//4 344//4 240//4
f  147//4 345//4 346//4 141//4
f  228//4 347//4 345//4 147//4
f  234//4 348//4 347//4 228//4
f  141//4 346//4 348//4 234//4
f  153//4 349//4 350//4 147//4
f  210//4 351//4 349//4 153//4
f  228//4 352//4 351//4 210//4
f  147//4 350//4 352//4 228//4
f  159//4 353//4 354//4 153//4
f  205//4 355//4 353//4 159//4
f  210//4 356//4 355//4 205//4
f  153//4 354//4 356//4 210//4
f  277//6 1//6 4//6 278//6
f  279//2 2//2 1//2 277//2
f  280//5 3//5 2//5 279//5
f  278//4 4//4 3//4 280//4
f  281//6 5//6 8//6 282//6
f  283//2 6//2 5//2 281//2
f  284//5 7//5 6//5 283//5
f  282//4 8//4 7//4 284//4
f  285//6 9//6 12//6 286//6
f  287//2 10//2 9//2 285//2
f  288//5 11//5 10//5 287//5
f  286//4 12//4 11//4 288//4
f  289//6 13//6 16//6 290//6
f  291//2 14//2 13//2 289//2
f  292//5 15//5 14//5 291//5
f  290//4 16//4 15//4 292//4
f  293//6 17//6 20//6 294//6
f  295//2 18//2 17//2 293//2
f  296//5 19//5 18//5 295//5
f  294//4 20//4 19//4 296//4
f  297//6 21//6 24//6 298//6
f  299//3 22//3 21//3 297//3
f  300//5 23//5 22//5 299//5
f  298//1 24//1 23//1 300//1
f  301//6 25//6 28//6 302//6
f  303//3 26//3 25//3 301//3
f  304//5 27//5 26//5 303//5
f  302//1 28//1 27//1 304//1
f  305//6 29//6 32//6 306//6
f  307//3 30//3 29//3 305//3
f  308//5 31//5 30//5 307//5
f  306//1 32//1 31//1 308//1
f  309//6 33//6 36//6 310//6
f  311//3 34//3 33//3 309//3
f  312//5 35//5 34//5 311//5
f  310//1 36//1 35//1 312//1
f  313//6 37//6 40//6 314//6
f  315//3 38//3 37//3 313//3
f  316//5 39//5 38//5 315//5
f  314//1 40//1 39//1 316//1
f  317//6 41//6 44//6 318//6
f  319//4 42//4 41//4 317//4
f  320//5 43//5 42//5 319//5
f  318//2 44//2 43//2 320//2
f  321//6 45//6 48//6 322//6
f  323//4 46//4 45//4 321//4
f  324//5 47//5 46//5 323//5
f  322//2 48//2 47//2 324//2
f  325//6 49//6 52//6 326//6
f  327//4 50//4 49//4 325//4
f  328//5 51//5 50//5 327//5
f  326//2 52//2 51//2 328//2
f  329//6 53//6 56//6 330//6
f  331//4 54//4 53//4 329//4
f  332//5 55//5 54//5 331//5
f  330//2 56//2 55//2 332//2
f  333//6 57//6 60//6 334//6
f  335//4 58//4 57//4 333//4
f  336//5 59//5 58//5 335//5
f  334//2 60//2 59//2 336//2
f  337//6 61//6 64//6 338//6
f  339//1 62//1 61//1 337//1
f  340//5 63//5 62//5 339//5
f  338//3 64//3 63//3 340//3
f  341//6 65//6 68//6 342//6
f  343//1 66//1 65//1 341//1
f  344//5 67//5 66//5 343//5
f  342//3 68//3 67//3 344//3
f  345//6 69//6 72//6 346//6
f  347//1 70//1 69//1 345//1
f  348//5 71//5 70//5 347//5
f  346//3 72//3 71//3 348//3
f  349//6 73//6 76//6 350//6
f  351//1 74//1 73//1 349//1
f  352//5 75//5 74//5 351//5
f  350//3 76//3 75//3 352//3
f  353//6 77//6 80//6 354//6
f  355//1 78//1 77//1 353//1
f  356//5 79//5 78//5 355//5
f  354//3 80//3 79//3 356//3

