# File produced by Open Asset Import Library (http://www.assimp.sf.net)
# (assimp v5.0.1588609223)

mtllib result.mtl

# 92 vertex positions
v  421.74954 40.912392 -9.3647079
v  421.74954 467.17804 -9.3647079
v  259.29092 467.17804 -9.3647079
v  259.29092 40.912392 -9.3647079
v  422.16528 40.912392 -138.09158
v  422.16528 467.17804 -138.09158
v  422.16528 467.17804 -9.7804489
v  422.16528 40.912392 -9.7804489
v  259.29092 40.912392 -138.50732
v  259.29092 467.17804 -138.50732
v  421.74954 467.17804 -138.50732
v  421.74954 40.912392 -138.50732
v  258.87518 40.912392 -9.7804489
v  258.87518 467.17804 -9.7804489
v  258.87518 467.17804 -138.09158
v  258.87518 40.912392 -138.09158
v  434.4989 478.68021 -150.20775
v  433.25171 478.68021 -149.59372
v  247.78877 478.68021 -149.59372
v  246.54155 478.68021 -150.20775
v  434.4989 0.69824815 -150.20775
v  434.4989 0.69824815 2.3357239
v  246.54155 0.69824815 2.3357239
v  246.54155 0.69824815 -150.20775
v  434.4989 507.39218 2.3357239
v  420.08661 507.39218 -4.7597885
v  260.95386 507.39218 -4.7597885
v  246.54155 507.39218 2.3357239
v  434.4989 507.39218 -150.20775
v  420.08661 507.39218 -143.11224
v  246.54155 507.39218 -150.20775
v  260.95386 507.39218 -143.11224
v  420.08661 492.18054 -4.7597885
v  260.95386 492.18054 -4.7597885
v  420.08661 492.18054 -143.11224
v  260.95386 492.18054 -143.11224
v  398.19095 492.18054 -98.687897
v  282.84952 492.18054 -98.687897
v  398.19095 492.18054 -137.09282
v  282.84952 492.18054 -137.09282
v  398.19095 536.10425 -98.687897
v  282.84952 536.10425 -98.687897
v  406.50574 497.31448 -135.25072
v  406.50574 530.97028 -135.25072
v  406.50574 530.97028 -100.53001
v  406.50574 497.31448 -100.53001
v  282.84952 536.10425 -137.09282
v  398.19095 536.10425 -137.09282
v  398.19095 497.31448 -135.25072
v  398.19095 497.31448 -100.53001
v  398.19095 530.97028 -135.25072
v  398.19095 530.97028 -100.53001
v  322.64981 536.10425 -112.06021
v  289.34894 536.10425 -112.06021
v  322.64981 536.10425 -123.72051
v  289.34894 536.10425 -123.72051
v  322.64981 554.73853 -112.06021
v  289.34894 554.73853 -112.06021
v  322.64981 554.73853 -123.72051
v  289.34894 554.73853 -123.72051
v  312.3949 554.73853 -117.10893
v  299.60388 554.73853 -117.10893
v  312.3949 554.73853 -118.67178
v  299.60388 554.73853 -118.67178
v  434.4989 478.68021 2.3357239
v  433.25171 478.68021 1.7216873
v  246.54155 29.410252 2.3357239
v  247.78877 29.410252 1.7216873
v  247.78877 29.410252 -149.59372
v  246.54155 29.410252 -150.20775
v  247.78877 478.68021 1.7216873
v  246.54155 478.68021 2.3357239
v  433.25171 29.410252 -149.59372
v  434.4989 29.410252 -150.20775
v  247.78877 40.912392 -9.7804489
v  247.78877 40.912392 -138.09158
v  247.78877 467.17804 -9.7804489
v  247.78877 467.17804 -138.09158
v  434.4989 29.410252 2.3357239
v  433.25171 29.410252 1.7216873
v  421.74954 40.912392 1.7216873
v  259.29092 40.912392 1.7216873
v  421.74954 467.17804 1.7216873
v  259.29092 467.17804 1.7216873
v  433.25171 40.912392 -138.09158
v  433.25171 40.912392 -9.7804489
v  433.25171 467.17804 -138.09158
v  433.25171 467.17804 -9.7804489
v  259.29092 40.912392 -149.59372
v  421.74954 40.912392 -149.59372
v  259.29092 467.17804 -149.59372
v  421.74954 467.17804 -149.59372

# 0 UV coordinates

# 6 vertex normals
vn 0 0 1
vn 1 0 0
vn 0 0 -1
vn -1 0 0
vn 0 -1 0
vn 0 1 0

# Mesh 'Highrise_10' with 90 faces
g Highrise_10
usemtl lambert1
f  1//1 2//1 3//1 4//1
f  5//2 6//2 7//2 8//2
f  9//3 10//3 11//3 12//3
f  13//4 14//4 15//4 16//4
f  17//5 18//5 19//5 20//5
f  21//5 22//5 23//5 24//5
f  25//6 26//6 27//6 28//6
f  29//6 30//6 26//6 25//6
f  31//6 32//6 30//6 29//6
f  28//6 27//6 32//6 31//6
f  26//3 33//3 34//3 27//3
f  30//4 35//4 33//4 26//4
f  32//1 36//1 35//1 30//1
f  27//2 34//2 36//2 32//2
f  33//6 37//6 38//6 34//6
f  35//6 39//6 37//6 33//6
f  36//6 40//6 39//6 35//6
f  34//6 38//6 40//6 36//6
f  37//1 41//1 42//1 38//1
f  43//2 44//2 45//2 46//2
f  40//3 47//3 48//3 39//3
f  38//4 42//4 47//4 40//4
f  39//2 49//2 50//2 37//2
f  48//2 51//2 49//2 39//2
f  41//2 52//2 51//2 48//2
f  37//2 50//2 52//2 41//2
f  49//5 43//5 46//5 50//5
f  51//3 44//3 43//3 49//3
f  52//6 45//6 44//6 51//6
f  50//1 46//1 45//1 52//1
f  41//6 53//6 54//6 42//6
f  48//6 55//6 53//6 41//6
f  47//6 56//6 55//6 48//6
f  42//6 54//6 56//6 47//6
f  53//1 57//1 58//1 54//1
f  55//2 59//2 57//2 53//2
f  56//3 60//3 59//3 55//3
f  54//4 58//4 60//4 56//4
f  57//6 61//6 62//6 58//6
f  59//6 63//6 61//6 57//6
f  60//6 64//6 63//6 59//6
f  58//6 62//6 64//6 60//6
f  65//5 66//5 18//5 17//5
f  67//6 68//6 69//6 70//6
f  20//5 19//5 71//5 72//5
f  70//6 69//6 73//6 74//6
f  75//6 13//6 16//6 76//6
f  77//3 14//3 13//3 75//3
f  78//5 15//5 14//5 77//5
f  76//1 16//1 15//1 78//1
f  22//1 79//1 67//1 23//1
f  28//1 72//1 65//1 25//1
f  21//2 74//2 79//2 22//2
f  25//2 65//2 17//2 29//2
f  24//3 70//3 74//3 21//3
f  29//3 17//3 20//3 31//3
f  23//4 67//4 70//4 24//4
f  31//4 20//4 72//4 28//4
f  79//6 80//6 68//6 67//6
f  72//5 71//5 66//5 65//5
f  74//6 73//6 80//6 79//6
f  61//6 63//6 64//6 62//6
f  80//1 81//1 82//1 68//1
f  66//1 83//1 81//1 80//1
f  71//1 84//1 83//1 66//1
f  68//1 82//1 84//1 71//1
f  73//2 85//2 86//2 80//2
f  18//2 87//2 85//2 73//2
f  66//2 88//2 87//2 18//2
f  80//2 86//2 88//2 66//2
f  69//3 89//3 90//3 73//3
f  19//3 91//3 89//3 69//3
f  18//3 92//3 91//3 19//3
f  73//3 90//3 92//3 18//3
f  68//4 75//4 76//4 69//4
f  71//4 77//4 75//4 68//4
f  19//4 78//4 77//4 71//4
f  69//4 76//4 78//4 19//4
f  81//6 1//6 4//6 82//6
f  83//4 2//4 1//4 81//4
f  84//5 3//5 2//5 83//5
f  82//2 4//2 3//2 84//2
f  85//6 5//6 8//6 86//6
f  87//1 6//1 5//1 85//1
f  88//5 7//5 6//5 87//5
f  86//3 8//3 7//3 88//3
f  89//6 9//6 12//6 90//6
f  91//2 10//2 9//2 89//2
f  92//5 11//5 10//5 91//5
f  90//4 12//4 11//4 92//4

