# File produced by Open Asset Import Library (http://www.assimp.sf.net)
# (assimp v5.0.1588609223)

mtllib result.mtl

# 210 vertex positions
v  -1017.7549 95.259422 -116.64153
v  -1017.7549 526.32806 -116.64153
v  -1017.7549 526.32806 -154.14153
v  -1017.7549 95.259422 -154.14153
v  -1017.7549 95.259422 -79.141525
v  -1017.7549 526.32806 -79.141525
v  -1017.7549 95.259422 -41.641525
v  -1017.7549 526.32806 -41.641525
v  -1017.7549 95.259422 -4.1415253
v  -1017.7549 526.32806 -4.1415253
v  -980.25488 95.259422 -4.1415329
v  -980.25488 526.32806 -4.1415329
v  -942.75488 95.259422 -4.1415405
v  -942.75488 526.32806 -4.1415405
v  -905.25488 95.259422 -4.1415482
v  -905.25488 526.32806 -4.1415482
v  -867.75488 95.259422 -4.1415558
v  -867.75488 526.32806 -4.1415558
v  -867.75488 95.259422 -41.641556
v  -867.75488 526.32806 -41.641556
v  -867.75488 95.259422 -79.141556
v  -867.75488 526.32806 -79.141556
v  -867.75488 95.259422 -116.64156
v  -867.75488 526.32806 -116.64156
v  -867.75488 95.259422 -154.14156
v  -867.75488 526.32806 -154.14156
v  -905.25488 95.259422 -154.14154
v  -905.25488 526.32806 -154.14154
v  -942.75488 95.259422 -154.14154
v  -942.75488 526.32806 -154.14154
v  -980.25488 95.259422 -154.14154
v  -980.25488 526.32806 -154.14154
v  -1012.0991 656.13379 -114.95403
v  -976.31409 641.41095 -114.95403
v  -976.31409 641.41095 -150.76654
v  -1012.0991 656.13379 -150.76653
v  -1012.0991 656.13379 -79.141525
v  -976.31409 641.41095 -79.141533
v  -1012.0991 656.13379 -43.329025
v  -976.31409 641.41095 -43.329033
v  -1012.0991 656.13379 -7.5165253
v  -976.31409 641.41095 -7.5165329
v  -940.52905 626.68811 -114.95404
v  -940.52905 626.68811 -150.76654
v  -940.52905 626.68811 -79.141541
v  -940.52905 626.68811 -43.329041
v  -940.52905 626.68811 -7.5165405
v  -904.74408 611.96521 -114.95405
v  -904.74408 611.96521 -150.76654
v  -904.74408 611.96521 -79.141548
v  -904.74402 611.96521 -43.329048
v  -904.74402 611.96521 -7.5165482
v  -868.95905 597.24237 -114.95406
v  -868.95905 597.24237 -150.76656
v  -868.95905 597.24237 -79.141556
v  -868.95905 597.24237 -43.329056
v  -868.95905 597.24237 -7.5165558
v  -867.75488 0.30942264 -116.64156
v  -905.25488 0.30942264 -116.64155
v  -905.25488 0.30942264 -154.14154
v  -867.75488 0.30942264 -154.14156
v  -867.75488 0.30942264 -79.141556
v  -905.25488 0.30942264 -79.141548
v  -867.75488 0.30942264 -41.641556
v  -905.25488 0.30942264 -41.641548
v  -867.75488 0.30942264 -4.1415558
v  -905.25488 0.30942264 -4.1415482
v  -942.75488 0.30942264 -116.64154
v  -942.75488 0.30942264 -154.14154
v  -942.75488 0.30942264 -79.141541
v  -942.75488 0.30942264 -41.641541
v  -942.75488 0.30942264 -4.1415405
v  -980.25488 0.30942264 -116.64153
v  -980.25488 0.30942264 -154.14154
v  -980.25488 0.30942264 -79.141533
v  -980.25488 0.30942264 -41.641533
v  -980.25488 0.30942264 -4.1415329
v  -1017.7549 0.30942264 -116.64153
v  -1017.7549 0.30942264 -154.14153
v  -1017.7549 0.30942264 -79.141525
v  -1017.7549 0.30942264 -41.641525
v  -1017.7549 0.30942264 -4.1415253
v  -1017.7549 82.809418 -116.64153
v  -1017.7549 82.809418 -154.14153
v  -1017.6973 652.11127 -154.14153
v  -1017.7549 538.77808 -154.14153
v  -1017.7549 538.77808 -116.64153
v  -1017.6973 652.11127 -116.64153
v  -1017.7549 82.809418 -79.141525
v  -1017.7549 538.77808 -79.141525
v  -1017.6973 652.11127 -79.141525
v  -1017.7549 82.809418 -41.641525
v  -1017.7549 538.77808 -41.641525
v  -1017.6973 652.11127 -41.641525
v  -1017.7549 82.809418 -4.1415253
v  -1017.7549 538.77808 -4.1415253
v  -1017.6973 652.11127 -4.1415253
v  -980.25488 82.809418 -4.1415329
v  -980.25488 538.77808 -4.1415329
v  -980.22607 636.69464 -4.1415329
v  -942.75488 82.809418 -4.1415405
v  -942.75488 538.77808 -4.1415405
v  -942.75488 621.27808 -4.1415405
v  -905.25488 82.809418 -4.1415482
v  -905.25488 538.77808 -4.1415482
v  -905.28363 605.86145 -4.1415482
v  -867.75488 82.809418 -4.1415558
v  -867.75488 538.77808 -4.1415558
v  -867.81244 590.44489 -4.1415558
v  -867.75488 82.809418 -41.641556
v  -867.75488 538.77808 -41.641556
v  -867.81244 590.44489 -41.641556
v  -867.75488 82.809418 -79.141556
v  -867.75488 538.77808 -79.141556
v  -867.81244 590.44489 -79.141556
v  -867.75488 82.809418 -116.64156
v  -867.75488 538.77808 -116.64156
v  -867.81244 590.44489 -116.64156
v  -867.75488 82.809418 -154.14156
v  -867.75488 538.77808 -154.14156
v  -867.8125 590.44489 -154.14156
v  -905.25488 82.809418 -154.14154
v  -905.25488 538.77808 -154.14154
v  -905.28369 605.86145 -154.14154
v  -942.75488 82.809418 -154.14154
v  -942.75488 538.77808 -154.14154
v  -942.75488 621.27808 -154.14154
v  -980.25488 82.809418 -154.14154
v  -980.25488 538.77808 -154.14154
v  -980.22614 636.69464 -154.14154
v  -1002.6799 538.77808 -139.06653
v  -1002.6799 526.32806 -139.06653
v  -1002.6799 526.32806 -116.64153
v  -1002.6799 538.77808 -116.64153
v  -1002.6799 526.32806 -79.141525
v  -1002.6799 538.77808 -79.141525
v  -1002.6799 526.32806 -41.641529
v  -1002.6799 538.77808 -41.641529
v  -1002.6799 526.32806 -19.21653
v  -1002.6799 538.77808 -19.21653
v  -980.25488 526.32806 -19.216534
v  -980.25488 538.77808 -19.216534
v  -942.75488 526.32806 -19.216541
v  -942.75488 538.77808 -19.216541
v  -905.25488 526.32806 -19.216549
v  -905.25488 538.77808 -19.216549
v  -882.8299 526.32806 -19.216553
v  -882.8299 538.77808 -19.216553
v  -882.8299 526.32806 -41.641552
v  -882.8299 538.77808 -41.641552
v  -882.8299 526.32806 -79.141556
v  -882.8299 538.77808 -79.141556
v  -882.8299 526.32806 -116.64156
v  -882.8299 538.77808 -116.64156
v  -882.8299 526.32806 -139.06656
v  -882.8299 538.77808 -139.06656
v  -905.25488 526.32806 -139.06654
v  -905.25488 538.77808 -139.06654
v  -942.75488 526.32806 -139.06654
v  -942.75488 538.77808 -139.06654
v  -980.25488 526.32806 -139.06653
v  -980.25488 538.77808 -139.06653
v  -1002.6049 538.77808 -138.99153
v  -1002.6049 538.77808 -116.64153
v  -1002.6049 526.32806 -116.64153
v  -1002.6049 526.32806 -138.99153
v  -1002.6049 538.77808 -79.141525
v  -1002.6049 526.32806 -79.141525
v  -1002.6049 538.77808 -41.641529
v  -1002.6049 526.32806 -41.641529
v  -1002.6049 538.77808 -19.291531
v  -1002.6049 526.32806 -19.291531
v  -980.25488 538.77808 -19.291534
v  -980.25488 526.32806 -19.291534
v  -942.75488 538.77808 -19.291542
v  -942.75488 526.32806 -19.291542
v  -905.25488 538.77808 -19.29155
v  -905.25488 526.32806 -19.29155
v  -882.90485 538.77808 -19.291553
v  -882.90485 526.32806 -19.291553
v  -882.90491 538.77808 -41.641552
v  -882.90491 526.32806 -41.641552
v  -882.90491 538.77808 -79.141556
v  -882.90491 526.32806 -79.141556
v  -882.90491 538.77808 -116.64156
v  -882.90491 526.32806 -116.64156
v  -882.90491 538.77808 -138.99155
v  -882.90491 526.32806 -138.99155
v  -905.25488 538.77808 -138.99155
v  -905.25488 526.32806 -138.99155
v  -942.75488 538.77808 -138.99155
v  -942.75488 526.32806 -138.99155
v  -980.25488 538.77808 -138.99153
v  -980.25488 526.32806 -138.99153
v  -1012.5842 654.95465 -114.95403
v  -1012.5842 654.95465 -150.76653
v  -976.79919 640.23181 -150.76654
v  -1012.5842 654.95465 -79.141525
v  -1012.5842 654.95465 -43.329025
v  -1012.5842 654.95465 -7.5165253
v  -976.79919 640.23181 -7.5165329
v  -941.01422 625.50897 -150.76654
v  -941.01416 625.50897 -7.5165405
v  -905.22919 610.78613 -150.76654
v  -905.22913 610.78613 -7.5165482
v  -869.44415 596.06329 -150.76656
v  -869.44415 596.06329 -114.95406
v  -869.44415 596.06329 -79.141556
v  -869.44415 596.06329 -43.329056
v  -869.44415 596.06329 -7.5165558

# 0 UV coordinates

# 16 vertex normals
vn -1 0 1.9470718e-07
vn 1.9470718e-07 0 1
vn 1 0 -1.9470718e-07
vn -1.9470718e-07 0 -1
vn 0.38048112 0.92478871 -7.4082408e-08
vn 0 -1 0
vn -0.99999988 0.00050796935 1.9470716e-07
vn 0.9999994 0.0011142502 -1.9470707e-07
vn 0 1 0
vn -0.48600835 0.87395418 9.4629314e-08
vn 0.22587204 0.54899985 -0.80472422
vn 0.22587237 0.54899985 0.8047241
vn 0.96032071 0.27889842 -1.8698134e-07
vn -0.92478871 0.38048112 1.8006301e-07
vn 0.92478871 -0.38048112 -1.8006301e-07
vn 0 0 0

# Mesh 'Highrise_16' with 224 faces
g Highrise_16
usemtl lambert1
f  1//1 2//1 3//1 4//1
f  5//1 6//1 2//1 1//1
f  7//1 8//1 6//1 5//1
f  9//1 10//1 8//1 7//1
f  11//2 12//2 10//2 9//2
f  13//2 14//2 12//2 11//2
f  15//2 16//2 14//2 13//2
f  17//2 18//2 16//2 15//2
f  19//3 20//3 18//3 17//3
f  21//3 22//3 20//3 19//3
f  23//3 24//3 22//3 21//3
f  25//3 26//3 24//3 23//3
f  27//4 28//4 26//4 25//4
f  29//4 30//4 28//4 27//4
f  31//4 32//4 30//4 29//4
f  4//4 3//4 32//4 31//4
f  33//5 34//5 35//5 36//5
f  37//5 38//5 34//5 33//5
f  39//5 40//5 38//5 37//5
f  41//5 42//5 40//5 39//5
f  34//5 43//5 44//5 35//5
f  38//5 45//5 43//5 34//5
f  40//5 46//5 45//5 38//5
f  42//5 47//5 46//5 40//5
f  43//5 48//5 49//5 44//5
f  45//5 50//5 48//5 43//5
f  46//5 51//5 50//5 45//5
f  47//5 52//5 51//5 46//5
f  48//5 53//5 54//5 49//5
f  50//5 55//5 53//5 48//5
f  51//5 56//5 55//5 50//5
f  52//5 57//5 56//5 51//5
f  58//6 59//6 60//6 61//6
f  62//6 63//6 59//6 58//6
f  64//6 65//6 63//6 62//6
f  66//6 67//6 65//6 64//6
f  59//6 68//6 69//6 60//6
f  63//6 70//6 68//6 59//6
f  65//6 71//6 70//6 63//6
f  67//6 72//6 71//6 65//6
f  68//6 73//6 74//6 69//6
f  70//6 75//6 73//6 68//6
f  71//6 76//6 75//6 70//6
f  72//6 77//6 76//6 71//6
f  73//6 78//6 79//6 74//6
f  75//6 80//6 78//6 73//6
f  76//6 81//6 80//6 75//6
f  77//6 82//6 81//6 76//6
f  78//1 83//1 84//1 79//1
f  85//7 86//7 87//7 88//7
f  80//1 89//1 83//1 78//1
f  88//7 87//7 90//7 91//7
f  81//1 92//1 89//1 80//1
f  91//7 90//7 93//7 94//7
f  82//1 95//1 92//1 81//1
f  94//7 93//7 96//7 97//7
f  77//2 98//2 95//2 82//2
f  97//2 96//2 99//2 100//2
f  72//2 101//2 98//2 77//2
f  100//2 99//2 102//2 103//2
f  67//2 104//2 101//2 72//2
f  103//2 102//2 105//2 106//2
f  66//2 107//2 104//2 67//2
f  106//2 105//2 108//2 109//2
f  64//3 110//3 107//3 66//3
f  109//8 108//8 111//8 112//8
f  62//3 113//3 110//3 64//3
f  112//8 111//8 114//8 115//8
f  58//3 116//3 113//3 62//3
f  115//8 114//8 117//8 118//8
f  61//3 119//3 116//3 58//3
f  118//8 117//8 120//8 121//8
f  60//4 122//4 119//4 61//4
f  121//4 120//4 123//4 124//4
f  69//4 125//4 122//4 60//4
f  124//4 123//4 126//4 127//4
f  74//4 128//4 125//4 69//4
f  127//4 126//4 129//4 130//4
f  79//4 84//4 128//4 74//4
f  130//4 129//4 86//4 85//4
f  83//1 1//1 4//1 84//1
f  131//1 132//1 133//1 134//1
f  89//1 5//1 1//1 83//1
f  134//1 133//1 135//1 136//1
f  92//1 7//1 5//1 89//1
f  136//1 135//1 137//1 138//1
f  95//1 9//1 7//1 92//1
f  138//1 137//1 139//1 140//1
f  98//2 11//2 9//2 95//2
f  140//2 139//2 141//2 142//2
f  101//2 13//2 11//2 98//2
f  142//2 141//2 143//2 144//2
f  104//2 15//2 13//2 101//2
f  144//2 143//2 145//2 146//2
f  107//2 17//2 15//2 104//2
f  146//2 145//2 147//2 148//2
f  110//3 19//3 17//3 107//3
f  148//3 147//3 149//3 150//3
f  113//3 21//3 19//3 110//3
f  150//3 149//3 151//3 152//3
f  116//3 23//3 21//3 113//3
f  152//3 151//3 153//3 154//3
f  119//3 25//3 23//3 116//3
f  154//3 153//3 155//3 156//3
f  122//4 27//4 25//4 119//4
f  156//4 155//4 157//4 158//4
f  125//4 29//4 27//4 122//4
f  158//4 157//4 159//4 160//4
f  128//4 31//4 29//4 125//4
f  160//4 159//4 161//4 162//4
f  84//4 4//4 31//4 128//4
f  162//4 161//4 132//4 131//4
f  86//6 163//6 164//6 87//6
f  2//9 165//9 166//9 3//9
f  87//6 164//6 167//6 90//6
f  6//9 168//9 165//9 2//9
f  90//6 167//6 169//6 93//6
f  8//9 170//9 168//9 6//9
f  93//6 169//6 171//6 96//6
f  10//9 172//9 170//9 8//9
f  96//6 171//6 173//6 99//6
f  12//9 174//9 172//9 10//9
f  99//6 173//6 175//6 102//6
f  14//9 176//9 174//9 12//9
f  102//6 175//6 177//6 105//6
f  16//9 178//9 176//9 14//9
f  105//6 177//6 179//6 108//6
f  18//9 180//9 178//9 16//9
f  108//6 179//6 181//6 111//6
f  20//9 182//9 180//9 18//9
f  111//6 181//6 183//6 114//6
f  22//9 184//9 182//9 20//9
f  114//6 183//6 185//6 117//6
f  24//9 186//9 184//9 22//9
f  117//6 185//6 187//6 120//6
f  26//9 188//9 186//9 24//9
f  120//6 187//6 189//6 123//6
f  28//9 190//9 188//9 26//9
f  123//6 189//6 191//6 126//6
f  30//9 192//9 190//9 28//9
f  126//6 191//6 193//6 129//6
f  32//9 194//9 192//9 30//9
f  129//6 193//6 163//6 86//6
f  3//9 166//9 194//9 32//9
f  163//9 131//9 134//9 164//9
f  165//6 133//6 132//6 166//6
f  164//9 134//9 136//9 167//9
f  168//6 135//6 133//6 165//6
f  167//9 136//9 138//9 169//9
f  170//6 137//6 135//6 168//6
f  169//9 138//9 140//9 171//9
f  172//6 139//6 137//6 170//6
f  171//9 140//9 142//9 173//9
f  174//6 141//6 139//6 172//6
f  173//9 142//9 144//9 175//9
f  176//6 143//6 141//6 174//6
f  175//9 144//9 146//9 177//9
f  178//6 145//6 143//6 176//6
f  177//9 146//9 148//9 179//9
f  180//6 147//6 145//6 178//6
f  179//9 148//9 150//9 181//9
f  182//6 149//6 147//6 180//6
f  181//9 150//9 152//9 183//9
f  184//6 151//6 149//6 182//6
f  183//9 152//9 154//9 185//9
f  186//6 153//6 151//6 184//6
f  185//9 154//9 156//9 187//9
f  188//6 155//6 153//6 186//6
f  187//9 156//9 158//9 189//9
f  190//6 157//6 155//6 188//6
f  189//9 158//9 160//9 191//9
f  192//6 159//6 157//6 190//6
f  191//9 160//9 162//9 193//9
f  194//6 161//6 159//6 192//6
f  193//9 162//9 131//9 163//9
f  166//6 132//6 161//6 194//6
f  88//10 195//10 196//10 85//10
f  85//11 196//11 197//11 130//11
f  91//10 198//10 195//10 88//10
f  94//10 199//10 198//10 91//10
f  97//10 200//10 199//10 94//10
f  100//12 201//12 200//12 97//12
f  130//11 197//11 202//11 127//11
f  103//12 203//12 201//12 100//12
f  127//11 202//11 204//11 124//11
f  106//12 205//12 203//12 103//12
f  121//13 206//13 207//13 118//13
f  124//11 204//11 206//11 121//11
f  118//13 207//13 208//13 115//13
f  115//13 208//13 209//13 112//13
f  109//12 210//12 205//12 106//12
f  112//13 209//13 210//13 109//13
f  195//14 33//14 36//14 196//14
f  196//4 36//4 35//4 197//4
f  198//14 37//14 33//14 195//14
f  199//14 39//14 37//14 198//14
f  200//14 41//14 39//14 199//14
f  201//2 42//2 41//2 200//2
f  197//4 35//4 44//4 202//4
f  203//2 47//2 42//2 201//2
f  202//4 44//4 49//4 204//4
f  205//2 52//2 47//2 203//2
f  206//15 54//15 53//15 207//15
f  204//4 49//4 54//4 206//4
f  207//15 53//15 55//15 208//15
f  208//15 55//15 56//15 209//15
f  210//2 57//2 52//2 205//2
f  209//15 56//15 57//15 210//15
f  33//16 33//16 36//16 36//16
f  36//16 36//16 35//16 35//16
f  37//16 37//16 33//16 33//16
f  39//16 39//16 37//16 37//16
f  41//16 41//16 39//16 39//16
f  42//16 42//16 41//16 41//16
f  35//16 35//16 44//16 44//16
f  47//16 47//16 42//16 42//16
f  44//16 44//16 49//16 49//16
f  52//16 52//16 47//16 47//16
f  54//16 54//16 53//16 53//16
f  49//16 49//16 54//16 54//16
f  53//16 53//16 55//16 55//16
f  55//16 55//16 56//16 56//16
f  57//16 57//16 52//16 52//16
f  56//16 56//16 57//16 57//16

