# File produced by Open Asset Import Library (http://www.assimp.sf.net)
# (assimp v5.0.1588609223)

mtllib result.mtl

# 176 vertex positions
v  64.637436 0.58474064 2.3505173
v  64.637436 458.5217 2.3505173
v  22.418846 458.5217 2.3505173
v  22.418846 0.58474064 2.3505173
v  103.12363 0.58474064 -1.3818817
v  103.12363 458.5217 -1.3818817
v  64.637436 458.5217 -1.3818817
v  64.637436 0.58474064 -1.3818817
v  141.60983 0.58474064 -1.3818817
v  141.60983 458.5217 -1.3818817
v  183.82843 0.58474064 2.3505173
v  183.82843 458.5217 2.3505173
v  141.60983 458.5217 2.3505173
v  141.60983 0.58474064 2.3505173
v  183.82843 0.58474064 -44.22963
v  183.82843 458.5217 -44.22963
v  180.09602 0.58474064 -87.077377
v  180.09602 458.5217 -87.077377
v  180.09602 458.5217 -44.22963
v  180.09602 0.58474064 -44.22963
v  180.09602 0.58474064 -129.92513
v  180.09602 458.5217 -129.92513
v  183.82843 0.58474064 -176.50528
v  183.82843 458.5217 -176.50528
v  183.82843 458.5217 -129.92513
v  183.82843 0.58474064 -129.92513
v  141.60983 0.58474064 -176.50528
v  141.60983 458.5217 -176.50528
v  103.12363 0.58474064 -172.77287
v  103.12363 458.5217 -172.77287
v  141.60983 458.5217 -172.77287
v  141.60983 0.58474064 -172.77287
v  64.637436 0.58474064 -172.77287
v  64.637436 458.5217 -172.77287
v  22.418846 0.58474064 -176.50528
v  22.418846 458.5217 -176.50528
v  64.637436 458.5217 -176.50528
v  64.637436 0.58474064 -176.50528
v  22.418846 0.58474064 -129.92513
v  22.418846 458.5217 -129.92513
v  26.151245 0.58474064 -87.077377
v  26.151245 458.5217 -87.077377
v  26.151245 458.5217 -129.92513
v  26.151245 0.58474064 -129.92513
v  26.151245 0.58474064 -44.22963
v  26.151245 458.5217 -44.22963
v  22.418846 458.5217 -44.22963
v  22.418846 0.58474064 -44.22963
v  64.637436 477.4245 -8.7262802
v  64.637436 477.4245 -44.22963
v  33.495644 477.4245 -44.22963
v  33.495644 477.4245 -8.7262802
v  103.12363 477.4245 -8.7262802
v  103.12363 477.4245 -44.22963
v  141.60983 477.4245 -8.7262802
v  141.60983 477.4245 -44.22963
v  172.75162 477.4245 -8.7262802
v  172.75162 477.4245 -44.22963
v  64.637436 477.4245 -87.077377
v  33.495644 477.4245 -87.077377
v  103.12363 481.75891 -44.22963
v  103.12363 481.75891 -87.077377
v  64.637436 481.75891 -87.077377
v  64.637436 481.75891 -44.22963
v  141.60983 481.75891 -44.22963
v  141.60983 481.75891 -87.077377
v  172.75162 477.4245 -87.077377
v  141.60983 477.4245 -87.077377
v  64.637436 477.4245 -129.92513
v  33.495644 477.4245 -129.92513
v  103.12363 477.4245 -87.077377
v  103.12363 477.4245 -129.92513
v  141.60983 477.4245 -129.92513
v  172.75162 477.4245 -129.92513
v  64.637436 477.4245 -165.42847
v  33.495644 477.4245 -165.42847
v  103.12363 477.4245 -165.42847
v  141.60983 477.4245 -165.42847
v  172.75162 477.4245 -165.42847
v  64.637436 0.58474064 -129.92513
v  26.151245 0.58474064 -172.77287
v  103.12363 0.58474064 -129.92513
v  141.60983 0.58474064 -129.92513
v  180.09602 0.58474064 -172.77287
v  64.637436 0.58474064 -87.077377
v  103.12363 0.58474064 -87.077377
v  141.60983 0.58474064 -87.077377
v  64.637436 0.58474064 -44.22963
v  103.12363 0.58474064 -44.22963
v  141.60983 0.58474064 -44.22963
v  26.151245 0.58474064 -1.3818817
v  180.09602 0.58474064 -1.3818817
v  64.637436 458.5217 -17.274681
v  64.637436 461.77249 -17.274681
v  42.044044 461.77249 -17.274681
v  42.044044 458.5217 -17.274681
v  42.044044 461.77249 -44.22963
v  42.044044 458.5217 -44.22963
v  103.12363 458.5217 -17.274681
v  103.12363 461.77249 -17.274681
v  141.60983 458.5217 -17.274681
v  141.60983 461.77249 -17.274681
v  164.20322 458.5217 -17.274681
v  164.20322 461.77249 -17.274681
v  164.20322 458.5217 -44.22963
v  164.20322 461.77249 -44.22963
v  42.044044 461.77249 -87.077377
v  42.044044 458.5217 -87.077377
v  164.20322 458.5217 -87.077377
v  164.20322 461.77249 -87.077377
v  42.044044 461.77249 -129.92513
v  42.044044 458.5217 -129.92513
v  164.20322 458.5217 -129.92513
v  164.20322 461.77249 -129.92513
v  42.044044 458.5217 -156.88007
v  42.044044 461.77249 -156.88007
v  64.637436 461.77249 -156.88007
v  64.637436 458.5217 -156.88007
v  103.12363 461.77249 -156.88007
v  103.12363 458.5217 -156.88007
v  141.60983 461.77249 -156.88007
v  141.60983 458.5217 -156.88007
v  164.20322 458.5217 -156.88007
v  164.20322 461.77249 -156.88007
v  64.637436 461.77249 -1.3818817
v  64.637436 483.6853 -1.3818817
v  26.151245 483.6853 -1.3818817
v  26.151245 461.77249 -1.3818817
v  26.151245 483.6853 -44.22963
v  26.151245 461.77249 -44.22963
v  103.12363 461.77249 -1.3818817
v  103.12363 483.6853 -1.3818817
v  141.60983 461.77249 -1.3818817
v  141.60983 483.6853 -1.3818817
v  180.09602 461.77249 -1.3818817
v  180.09602 483.6853 -1.3818817
v  180.09602 461.77249 -44.22963
v  180.09602 483.6853 -44.22963
v  26.151245 483.6853 -87.077377
v  26.151245 461.77249 -87.077377
v  180.09602 461.77249 -87.077377
v  180.09602 483.6853 -87.077377
v  26.151245 483.6853 -129.92513
v  26.151245 461.77249 -129.92513
v  180.09602 461.77249 -129.92513
v  180.09602 483.6853 -129.92513
v  26.151245 461.77249 -172.77287
v  26.151245 483.6853 -172.77287
v  64.637436 483.6853 -172.77287
v  64.637436 461.77249 -172.77287
v  103.12363 483.6853 -172.77287
v  103.12363 461.77249 -172.77287
v  141.60983 483.6853 -172.77287
v  141.60983 461.77249 -172.77287
v  180.09602 461.77249 -172.77287
v  180.09602 483.6853 -172.77287
v  64.637436 483.6853 -8.7262802
v  33.495644 483.6853 -8.7262802
v  33.495644 483.6853 -44.22963
v  103.12363 483.6853 -8.7262802
v  141.60983 483.6853 -8.7262802
v  172.75162 483.6853 -8.7262802
v  172.75162 483.6853 -44.22963
v  33.495644 483.6853 -87.077377
v  172.75162 483.6853 -87.077377
v  33.495644 483.6853 -129.92513
v  172.75162 483.6853 -129.92513
v  33.495644 483.6853 -165.42847
v  64.637436 483.6853 -165.42847
v  103.12363 483.6853 -165.42847
v  141.60983 483.6853 -165.42847
v  172.75162 483.6853 -165.42847
v  26.151245 458.5217 -1.3818817
v  180.09602 458.5217 -1.3818817
v  26.151245 458.5217 -172.77287
v  180.09602 458.5217 -172.77287

# 0 UV coordinates

# 6 vertex normals
vn 0 0 1
vn 1 0 0
vn 0 0 -1
vn -1 0 0
vn 0 1 0
vn 0 -1 0

# Mesh 'Highrise_7' with 174 faces
g Highrise_7
usemtl lambert1
f  1//1 2//1 3//1 4//1
f  5//1 6//1 7//1 8//1
f  9//1 10//1 6//1 5//1
f  11//1 12//1 13//1 14//1
f  15//2 16//2 12//2 11//2
f  17//2 18//2 19//2 20//2
f  21//2 22//2 18//2 17//2
f  23//2 24//2 25//2 26//2
f  27//3 28//3 24//3 23//3
f  29//3 30//3 31//3 32//3
f  33//3 34//3 30//3 29//3
f  35//3 36//3 37//3 38//3
f  39//4 40//4 36//4 35//4
f  41//4 42//4 43//4 44//4
f  45//4 46//4 42//4 41//4
f  4//4 3//4 47//4 48//4
f  49//5 50//5 51//5 52//5
f  53//5 54//5 50//5 49//5
f  55//5 56//5 54//5 53//5
f  57//5 58//5 56//5 55//5
f  50//5 59//5 60//5 51//5
f  61//5 62//5 63//5 64//5
f  65//5 66//5 62//5 61//5
f  58//5 67//5 68//5 56//5
f  59//5 69//5 70//5 60//5
f  71//5 72//5 69//5 59//5
f  68//5 73//5 72//5 71//5
f  67//5 74//5 73//5 68//5
f  69//5 75//5 76//5 70//5
f  72//5 77//5 75//5 69//5
f  73//5 78//5 77//5 72//5
f  74//5 79//5 78//5 73//5
f  33//6 80//6 44//6 81//6
f  29//6 82//6 80//6 33//6
f  32//6 83//6 82//6 29//6
f  84//6 21//6 83//6 32//6
f  80//6 85//6 41//6 44//6
f  82//6 86//6 85//6 80//6
f  83//6 87//6 86//6 82//6
f  21//6 17//6 87//6 83//6
f  85//6 88//6 45//6 41//6
f  86//6 89//6 88//6 85//6
f  87//6 90//6 89//6 86//6
f  17//6 20//6 90//6 87//6
f  88//6 8//6 91//6 45//6
f  89//6 5//6 8//6 88//6
f  90//6 9//6 5//6 89//6
f  20//6 92//6 9//6 90//6
f  93//1 94//1 95//1 96//1
f  96//4 95//4 97//4 98//4
f  99//1 100//1 94//1 93//1
f  101//1 102//1 100//1 99//1
f  103//1 104//1 102//1 101//1
f  105//2 106//2 104//2 103//2
f  98//4 97//4 107//4 108//4
f  109//2 110//2 106//2 105//2
f  108//4 107//4 111//4 112//4
f  113//2 114//2 110//2 109//2
f  115//3 116//3 117//3 118//3
f  112//4 111//4 116//4 115//4
f  118//3 117//3 119//3 120//3
f  120//3 119//3 121//3 122//3
f  123//2 124//2 114//2 113//2
f  122//3 121//3 124//3 123//3
f  125//1 126//1 127//1 128//1
f  128//4 127//4 129//4 130//4
f  131//1 132//1 126//1 125//1
f  133//1 134//1 132//1 131//1
f  135//1 136//1 134//1 133//1
f  137//2 138//2 136//2 135//2
f  130//4 129//4 139//4 140//4
f  141//2 142//2 138//2 137//2
f  140//4 139//4 143//4 144//4
f  145//2 146//2 142//2 141//2
f  147//3 148//3 149//3 150//3
f  144//4 143//4 148//4 147//4
f  150//3 149//3 151//3 152//3
f  152//3 151//3 153//3 154//3
f  155//2 156//2 146//2 145//2
f  154//3 153//3 156//3 155//3
f  126//5 157//5 158//5 127//5
f  127//5 158//5 159//5 129//5
f  132//5 160//5 157//5 126//5
f  134//5 161//5 160//5 132//5
f  136//5 162//5 161//5 134//5
f  138//5 163//5 162//5 136//5
f  129//5 159//5 164//5 139//5
f  142//5 165//5 163//5 138//5
f  139//5 164//5 166//5 143//5
f  146//5 167//5 165//5 142//5
f  148//5 168//5 169//5 149//5
f  143//5 166//5 168//5 148//5
f  149//5 169//5 170//5 151//5
f  151//5 170//5 171//5 153//5
f  156//5 172//5 167//5 146//5
f  153//5 171//5 172//5 156//5
f  157//3 49//3 52//3 158//3
f  158//2 52//2 51//2 159//2
f  160//3 53//3 49//3 157//3
f  161//3 55//3 53//3 160//3
f  162//3 57//3 55//3 161//3
f  163//4 58//4 57//4 162//4
f  159//2 51//2 60//2 164//2
f  165//4 67//4 58//4 163//4
f  164//2 60//2 70//2 166//2
f  167//4 74//4 67//4 165//4
f  168//1 76//1 75//1 169//1
f  166//2 70//2 76//2 168//2
f  169//1 75//1 77//1 170//1
f  170//1 77//1 78//1 171//1
f  172//4 79//4 74//4 167//4
f  171//1 78//1 79//1 172//1
f  7//5 93//5 96//5 173//5
f  128//6 95//6 94//6 125//6
f  173//5 96//5 98//5 46//5
f  130//6 97//6 95//6 128//6
f  6//5 99//5 93//5 7//5
f  125//6 94//6 100//6 131//6
f  10//5 101//5 99//5 6//5
f  131//6 100//6 102//6 133//6
f  174//5 103//5 101//5 10//5
f  133//6 102//6 104//6 135//6
f  19//5 105//5 103//5 174//5
f  135//6 104//6 106//6 137//6
f  46//5 98//5 108//5 42//5
f  140//6 107//6 97//6 130//6
f  18//5 109//5 105//5 19//5
f  137//6 106//6 110//6 141//6
f  42//5 108//5 112//5 43//5
f  144//6 111//6 107//6 140//6
f  22//5 113//5 109//5 18//5
f  141//6 110//6 114//6 145//6
f  175//5 115//5 118//5 34//5
f  150//6 117//6 116//6 147//6
f  43//5 112//5 115//5 175//5
f  147//6 116//6 111//6 144//6
f  34//5 118//5 120//5 30//5
f  152//6 119//6 117//6 150//6
f  30//5 120//5 122//5 31//5
f  154//6 121//6 119//6 152//6
f  176//5 123//5 113//5 22//5
f  145//6 114//6 124//6 155//6
f  31//5 122//5 123//5 176//5
f  155//6 124//6 121//6 154//6
f  8//6 1//6 4//6 91//6
f  7//2 2//2 1//2 8//2
f  173//5 3//5 2//5 7//5
f  91//6 4//6 48//6 45//6
f  46//5 47//5 3//5 173//5
f  45//3 48//3 47//3 46//3
f  92//6 11//6 14//6 9//6
f  10//5 13//5 12//5 174//5
f  9//4 14//4 13//4 10//4
f  20//6 15//6 11//6 92//6
f  19//3 16//3 15//3 20//3
f  174//5 12//5 16//5 19//5
f  84//6 23//6 26//6 21//6
f  22//5 25//5 24//5 176//5
f  21//1 26//1 25//1 22//1
f  32//6 27//6 23//6 84//6
f  31//4 28//4 27//4 32//4
f  176//5 24//5 28//5 31//5
f  81//6 35//6 38//6 33//6
f  34//5 37//5 36//5 175//5
f  33//2 38//2 37//2 34//2
f  44//6 39//6 35//6 81//6
f  43//1 40//1 39//1 44//1
f  175//5 36//5 40//5 43//5
f  54//1 61//1 64//1 50//1
f  59//3 63//3 62//3 71//3
f  50//4 64//4 63//4 59//4
f  56//1 65//1 61//1 54//1
f  68//2 66//2 65//2 56//2
f  71//3 62//3 66//3 68//3

