# File produced by Open Asset Import Library (http://www.assimp.sf.net)
# (assimp v5.0.1588609223)

mtllib result.mtl

# 100 vertex positions
v  1533.9082 8.753583 -3.8849945
v  1533.9082 196.35358 -3.8849945
v  1346.3081 196.35358 -3.8849945
v  1346.3081 8.753583 -3.8849945
v  1543.6082 8.753583 -201.185
v  1543.6082 196.35358 -201.185
v  1543.6082 196.35358 -13.584991
v  1543.6082 8.753583 -13.584991
v  1346.3081 8.753583 -210.88499
v  1346.3081 196.35358 -210.88499
v  1533.9082 196.35358 -210.88499
v  1533.9082 8.753583 -210.88499
v  1336.6082 8.753583 -13.584991
v  1336.6082 196.35358 -13.584991
v  1336.6082 196.35358 -201.185
v  1336.6082 8.753583 -201.185
v  1446.1082 471.65356 -101.38499
v  1446.1082 471.65356 -113.38499
v  1434.1082 471.65356 -113.38499
v  1434.1082 471.65356 -101.38499
v  1540.1082 2.5535831 -207.38499
v  1540.1082 2.5535831 -7.3849945
v  1340.1082 2.5535831 -7.3849945
v  1340.1082 2.5535831 -207.38499
v  1533.9082 8.753583 -7.3849945
v  1346.3081 8.753583 -7.3849945
v  1540.1082 202.55357 -7.3849945
v  1533.9082 196.35358 -7.3849945
v  1340.1082 202.55357 -7.3849945
v  1346.3081 196.35358 -7.3849945
v  1540.1082 8.753583 -201.185
v  1540.1082 8.753583 -13.584991
v  1540.1082 202.55357 -207.38499
v  1540.1082 196.35358 -201.185
v  1540.1082 196.35358 -13.584991
v  1346.3081 8.753583 -207.38499
v  1533.9082 8.753583 -207.38499
v  1340.1082 202.55357 -207.38499
v  1346.3081 196.35358 -207.38499
v  1533.9082 196.35358 -207.38499
v  1340.1082 8.753583 -13.584991
v  1340.1082 8.753583 -201.185
v  1340.1082 196.35358 -13.584991
v  1340.1082 196.35358 -201.185
v  1537.1082 202.55357 -10.384995
v  1343.1082 202.55357 -10.384995
v  1537.1082 202.55357 -204.38499
v  1343.1082 202.55357 -204.38499
v  1537.1082 253.65358 -10.384995
v  1343.1082 253.65358 -10.384995
v  1537.1082 253.65358 -204.38499
v  1343.1082 253.65358 -204.38499
v  1530.1082 253.65358 -17.384995
v  1350.1082 253.65358 -17.384995
v  1530.1082 253.65358 -197.38499
v  1350.1082 253.65358 -197.38499
v  1530.1082 226.95358 -17.384995
v  1350.1082 226.95358 -17.384995
v  1530.1082 226.95358 -197.38499
v  1350.1082 226.95358 -197.38499
v  1518.4082 226.95358 -29.084991
v  1361.8081 226.95358 -29.084991
v  1518.4082 226.95358 -185.685
v  1361.8081 226.95358 -185.685
v  1518.4082 289.25357 -29.084991
v  1361.8081 289.25357 -29.084991
v  1518.4082 289.25357 -185.685
v  1361.8081 289.25357 -185.685
v  1512.5082 289.25357 -34.984993
v  1367.7081 289.25357 -34.984993
v  1512.5082 289.25357 -179.785
v  1367.7081 289.25357 -179.785
v  1512.5082 268.85358 -34.984993
v  1367.7081 268.85358 -34.984993
v  1512.5082 268.85358 -179.785
v  1367.7081 268.85358 -179.785
v  1504.0082 268.85358 -43.484993
v  1376.2081 268.85358 -43.484993
v  1504.0082 268.85358 -171.285
v  1376.2081 268.85358 -171.285
v  1504.0082 334.75357 -43.484993
v  1376.2081 334.75357 -43.484993
v  1504.0082 334.75357 -171.285
v  1376.2081 334.75357 -171.285
v  1426.3081 384.85358 -93.584991
v  1426.3081 384.85358 -121.185
v  1453.9082 384.85358 -121.185
v  1453.9082 384.85358 -93.584991
v  1453.9082 425.65356 -93.584991
v  1426.3081 425.65356 -93.584991
v  1453.9082 425.65356 -121.185
v  1426.3081 425.65356 -121.185
v  1446.1082 425.65356 -101.38499
v  1434.1082 425.65356 -101.38499
v  1446.1082 425.65356 -113.38499
v  1434.1082 425.65356 -113.38499
v  1446.1082 471.45358 -101.38499
v  1434.1082 471.45358 -101.38499
v  1446.1082 471.45358 -113.38499
v  1434.1082 471.45358 -113.38499

# 0 UV coordinates

# 10 vertex normals
vn 0 0 1
vn 1 0 0
vn 0 0 -1
vn -1 0 0
vn 0 1 0
vn 0 -1 0
vn -0.70710683 0.70710683 0
vn 0 0.70710683 -0.70710683
vn 0.70710683 0.70710683 0
vn 0 0.70710683 0.70710683

# Mesh 'Highrise_9' with 98 faces
g Highrise_9
usemtl lambert1
f  1//1 2//1 3//1 4//1
f  5//2 6//2 7//2 8//2
f  9//3 10//3 11//3 12//3
f  13//4 14//4 15//4 16//4
f  17//5 18//5 19//5 20//5
f  21//6 22//6 23//6 24//6
f  22//1 25//1 26//1 23//1
f  27//1 28//1 25//1 22//1
f  29//1 30//1 28//1 27//1
f  23//1 26//1 30//1 29//1
f  21//2 31//2 32//2 22//2
f  33//2 34//2 31//2 21//2
f  27//2 35//2 34//2 33//2
f  22//2 32//2 35//2 27//2
f  24//3 36//3 37//3 21//3
f  38//3 39//3 36//3 24//3
f  33//3 40//3 39//3 38//3
f  21//3 37//3 40//3 33//3
f  23//4 41//4 42//4 24//4
f  29//4 43//4 41//4 23//4
f  38//4 44//4 43//4 29//4
f  24//4 42//4 44//4 38//4
f  25//6 1//6 4//6 26//6
f  28//2 2//2 1//2 25//2
f  30//5 3//5 2//5 28//5
f  26//4 4//4 3//4 30//4
f  31//6 5//6 8//6 32//6
f  34//3 6//3 5//3 31//3
f  35//5 7//5 6//5 34//5
f  32//1 8//1 7//1 35//1
f  36//6 9//6 12//6 37//6
f  39//4 10//4 9//4 36//4
f  40//5 11//5 10//5 39//5
f  37//2 12//2 11//2 40//2
f  41//6 13//6 16//6 42//6
f  43//1 14//1 13//1 41//1
f  44//5 15//5 14//5 43//5
f  42//3 16//3 15//3 44//3
f  27//5 45//5 46//5 29//5
f  33//5 47//5 45//5 27//5
f  38//5 48//5 47//5 33//5
f  29//5 46//5 48//5 38//5
f  45//1 49//1 50//1 46//1
f  47//2 51//2 49//2 45//2
f  48//3 52//3 51//3 47//3
f  46//4 50//4 52//4 48//4
f  49//5 53//5 54//5 50//5
f  51//5 55//5 53//5 49//5
f  52//5 56//5 55//5 51//5
f  50//5 54//5 56//5 52//5
f  53//3 57//3 58//3 54//3
f  55//4 59//4 57//4 53//4
f  56//1 60//1 59//1 55//1
f  54//2 58//2 60//2 56//2
f  57//5 61//5 62//5 58//5
f  59//5 63//5 61//5 57//5
f  60//5 64//5 63//5 59//5
f  58//5 62//5 64//5 60//5
f  61//1 65//1 66//1 62//1
f  63//2 67//2 65//2 61//2
f  64//3 68//3 67//3 63//3
f  62//4 66//4 68//4 64//4
f  65//5 69//5 70//5 66//5
f  67//5 71//5 69//5 65//5
f  68//5 72//5 71//5 67//5
f  66//5 70//5 72//5 68//5
f  69//3 73//3 74//3 70//3
f  71//4 75//4 73//4 69//4
f  72//1 76//1 75//1 71//1
f  70//2 74//2 76//2 72//2
f  73//5 77//5 78//5 74//5
f  75//5 79//5 77//5 73//5
f  76//5 80//5 79//5 75//5
f  74//5 78//5 80//5 76//5
f  77//1 81//1 82//1 78//1
f  79//2 83//2 81//2 77//2
f  80//3 84//3 83//3 79//3
f  78//4 82//4 84//4 80//4
f  82//7 85//7 86//7 84//7
f  84//8 86//8 87//8 83//8
f  83//9 87//9 88//9 81//9
f  81//10 88//10 85//10 82//10
f  88//1 89//1 90//1 85//1
f  87//2 91//2 89//2 88//2
f  86//3 92//3 91//3 87//3
f  85//4 90//4 92//4 86//4
f  89//5 93//5 94//5 90//5
f  91//5 95//5 93//5 89//5
f  92//5 96//5 95//5 91//5
f  90//5 94//5 96//5 92//5
f  93//1 97//1 98//1 94//1
f  95//2 99//2 97//2 93//2
f  96//3 100//3 99//3 95//3
f  94//4 98//4 100//4 96//4
f  97//1 17//1 20//1 98//1
f  99//2 18//2 17//2 97//2
f  100//3 19//3 18//3 99//3
f  98//4 20//4 19//4 100//4

