# File produced by Open Asset Import Library (http://www.assimp.sf.net)
# (assimp v5.0.1588609223)

mtllib result.mtl

# 220 vertex positions
v  1111.6169 0.90294707 -21.800047
v  1111.6169 381.24927 -21.800047
v  1111.6169 381.24927 -1.5544281
v  1111.6169 0.90294707 -1.5544281
v  1108.517 0.90294707 -40.255821
v  1108.517 381.24927 -40.255821
v  1108.517 381.24927 -21.800047
v  1108.517 0.90294707 -21.800047
v  1108.517 0.90294707 -58.711594
v  1108.517 381.24927 -58.711594
v  1111.6169 0.90294707 -78.957214
v  1111.6169 381.24927 -78.957214
v  1111.6169 381.24927 -58.711594
v  1111.6169 0.90294707 -58.711594
v  1072.9292 0.90294707 -78.957214
v  1072.9292 381.24927 -78.957214
v  1037.3413 6.4029474 -72.867371
v  1037.3413 375.74927 -72.867371
v  1067.4291 375.74927 -72.867371
v  1067.4291 6.4029474 -72.867371
v  1007.2535 6.4029474 -72.867371
v  1007.2535 375.74927 -72.867371
v  963.06567 0.90294707 -78.957207
v  963.06567 381.24927 -78.957207
v  1001.7535 381.24927 -78.957214
v  1001.7535 0.90294707 -78.957214
v  963.06567 0.90294707 -58.711586
v  963.06567 381.24927 -58.711586
v  966.16565 0.90294707 -40.255814
v  966.16565 381.24927 -40.255814
v  966.16565 381.24927 -58.711586
v  966.16565 0.90294707 -58.711586
v  966.16565 0.90294707 -21.800039
v  966.16565 381.24927 -21.800039
v  963.06567 0.90294707 -1.5544205
v  963.06567 381.24927 -1.5544205
v  963.06567 381.24927 -21.800039
v  963.06567 0.90294707 -21.800039
v  1001.7535 0.90294707 -1.5544243
v  1001.7535 381.24927 -1.5544243
v  1037.3413 7.2029476 -8.644268
v  1037.3413 374.94928 -8.644268
v  1008.0535 374.94928 -8.6442661
v  1008.0535 7.2029476 -8.6442661
v  1066.6292 7.2029476 -8.6442699
v  1066.6292 374.94928 -8.6442699
v  1072.9292 381.24927 -1.5544243
v  1072.9292 0.90294707 -1.5544243
v  1102.417 396.94928 -21.800045
v  1072.9292 396.94928 -21.800045
v  1072.9292 396.94928 -6.8662224
v  1102.417 396.94928 -6.8662262
v  1102.417 396.94928 -40.255821
v  1072.9292 396.94928 -40.255817
v  1102.417 396.94928 -58.711594
v  1072.9292 396.94928 -58.711594
v  1102.417 396.94928 -73.645416
v  1072.9292 396.94928 -73.645416
v  1037.3413 396.94928 -21.800043
v  1037.3413 396.94928 -6.8662224
v  1072.9292 400.54929 -40.255817
v  1037.3413 400.54929 -40.255817
v  1037.3413 400.54929 -21.800043
v  1072.9292 400.54929 -21.800045
v  1057.8212 518.14929 -51.411594
v  1052.4492 518.14929 -51.411594
v  1052.4492 518.14929 -47.555817
v  1057.8212 518.14929 -47.555817
v  1037.3413 396.94928 -73.645416
v  1037.3413 396.94928 -58.711594
v  1001.7535 396.94928 -21.800041
v  1001.7535 396.94928 -6.8662224
v  1037.3413 396.94928 -40.255817
v  1001.7535 396.94928 -40.255817
v  1001.7535 396.94928 -58.71159
v  1001.7535 396.94928 -73.645416
v  972.26562 396.94928 -21.800041
v  972.26562 396.94928 -6.8662186
v  972.26562 396.94928 -40.255814
v  972.26562 396.94928 -58.71159
v  972.26562 396.94928 -73.645409
v  1001.7535 0.90294707 -21.800041
v  1001.7535 0.90294707 -3.3442688
v  966.16565 0.90294707 -3.344265
v  1001.7535 0.90294707 -40.255817
v  1001.7535 0.90294707 -58.71159
v  966.16565 0.90294707 -77.167358
v  1001.7535 0.90294707 -77.167366
v  1037.3413 0.90294707 -21.800043
v  1037.3413 0.90294707 -3.3442688
v  1037.3413 0.90294707 -40.255817
v  1037.3413 0.90294707 -58.711594
v  1037.3413 0.90294707 -77.167366
v  1072.9292 0.90294707 -21.800045
v  1072.9292 0.90294707 -3.3442688
v  1072.9292 0.90294707 -40.255817
v  1072.9292 0.90294707 -58.711594
v  1072.9292 0.90294707 -77.167366
v  1108.517 0.90294707 -3.3442726
v  1108.517 0.90294707 -77.167374
v  1095.317 381.24927 -21.800045
v  1095.317 383.94928 -21.800045
v  1095.317 383.94928 -10.965548
v  1095.317 381.24927 -10.965548
v  1072.9292 383.94928 -10.965548
v  1072.9292 381.24927 -10.965548
v  1095.317 381.24927 -40.255821
v  1095.317 383.94928 -40.255821
v  1095.317 381.24927 -58.711594
v  1095.317 383.94928 -58.711594
v  1095.317 381.24927 -69.546089
v  1095.317 383.94928 -69.546089
v  1072.9292 381.24927 -69.546089
v  1072.9292 383.94928 -69.546089
v  1037.3413 383.94928 -10.965546
v  1037.3413 381.24927 -10.965546
v  1037.3413 381.24927 -69.546089
v  1037.3413 383.94928 -69.546089
v  1001.7535 383.94928 -10.965544
v  1001.7535 381.24927 -10.965544
v  1001.7535 381.24927 -69.546089
v  1001.7535 383.94928 -69.546089
v  979.36566 381.24927 -10.965544
v  979.36566 383.94928 -10.965544
v  979.36566 383.94928 -21.800041
v  979.36566 381.24927 -21.800041
v  979.36566 383.94928 -40.255814
v  979.36566 381.24927 -40.255814
v  979.36566 383.94928 -58.71159
v  979.36566 381.24927 -58.71159
v  979.36566 381.24927 -69.546089
v  979.36566 383.94928 -69.546089
v  1108.517 383.94928 -21.800047
v  1108.517 402.14926 -21.800047
v  1108.517 402.14926 -3.3442726
v  1108.517 383.94928 -3.3442726
v  1072.9292 402.14926 -3.3442688
v  1072.9292 383.94928 -3.3442688
v  1108.517 383.94928 -40.255821
v  1108.517 402.14926 -40.255821
v  1108.517 383.94928 -58.711594
v  1108.517 402.14926 -58.711594
v  1108.517 383.94928 -77.167374
v  1108.517 402.14926 -77.167374
v  1072.9292 383.94928 -77.167366
v  1072.9292 402.14926 -77.167366
v  1037.3413 402.14926 -3.3442688
v  1037.3413 383.94928 -3.3442688
v  1037.3413 383.94928 -77.167366
v  1037.3413 402.14926 -77.167366
v  1001.7535 402.14926 -3.3442688
v  1001.7535 383.94928 -3.3442688
v  1001.7535 383.94928 -77.167366
v  1001.7535 402.14926 -77.167366
v  966.16565 383.94928 -3.344265
v  966.16565 402.14926 -3.344265
v  966.16565 402.14926 -21.800039
v  966.16565 383.94928 -21.800039
v  966.16565 402.14926 -40.255814
v  966.16565 383.94928 -40.255814
v  966.16565 402.14926 -58.711586
v  966.16565 383.94928 -58.711586
v  966.16565 383.94928 -77.167358
v  966.16565 402.14926 -77.167358
v  1102.417 402.14926 -21.800045
v  1102.417 402.14926 -6.8662262
v  1072.9292 402.14926 -6.8662224
v  1102.417 402.14926 -40.255821
v  1102.417 402.14926 -58.711594
v  1102.417 402.14926 -73.645416
v  1072.9292 402.14926 -73.645416
v  1037.3413 402.14926 -6.8662224
v  1037.3413 402.14926 -73.645416
v  1001.7535 402.14926 -6.8662224
v  1001.7535 402.14926 -73.645416
v  972.26562 402.14926 -6.8662186
v  972.26562 402.14926 -21.800041
v  972.26562 402.14926 -40.255814
v  972.26562 402.14926 -58.71159
v  972.26562 402.14926 -73.645409
v  1108.517 381.24927 -3.3442726
v  1072.9292 381.24927 -3.3442688
v  1108.517 381.24927 -77.167374
v  1072.9292 381.24927 -77.167366
v  1037.3413 381.24927 -3.3442688
v  1037.3413 381.24927 -77.167366
v  1001.7535 381.24927 -3.3442688
v  1001.7535 381.24927 -77.167366
v  966.16565 381.24927 -3.344265
v  966.16565 381.24927 -77.167358
v  1072.9292 400.54929 -58.711594
v  1037.3413 400.54929 -58.711594
v  1072.9292 411.74927 -58.711594
v  1072.9292 411.74927 -40.255817
v  1037.3413 411.74927 -58.711594
v  1037.3413 411.74927 -40.255817
v  1059.8212 411.74927 -53.411594
v  1059.8212 411.74927 -45.555817
v  1050.4492 411.74927 -53.411594
v  1050.4492 411.74927 -45.555817
v  1059.8212 456.84927 -53.411594
v  1059.8212 456.84927 -45.555817
v  1050.4492 456.84927 -53.411594
v  1050.4492 456.84927 -45.555817
v  1057.8212 456.84927 -51.411594
v  1057.8212 456.84927 -47.555817
v  1052.4492 456.84927 -51.411594
v  1052.4492 456.84927 -47.555817
v  1037.3413 7.2029476 -3.3442688
v  1008.0535 7.2029476 -3.3442688
v  1008.0535 374.94928 -3.3442688
v  1037.3413 374.94928 -3.3442688
v  1066.6292 7.2029476 -3.3442688
v  1066.6292 374.94928 -3.3442688
v  1037.3413 6.4029474 -77.167366
v  1067.4291 6.4029474 -77.167366
v  1067.4291 375.74927 -77.167366
v  1037.3413 375.74927 -77.167366
v  1007.2535 6.4029474 -77.167366
v  1007.2535 375.74927 -77.167366

# 0 UV coordinates

# 11 vertex normals
vn 1 0 -4.3711388e-08
vn -4.3711388e-08 0 -1
vn -1 0 4.3711388e-08
vn 4.3711388e-08 0 1
vn 0 1 0
vn 0 -1 -0
vn 4.3711388e-08 6.6174449e-24 1
vn -9.7042733e-16 1 4.2418726e-23
vn -1.9408547e-15 -1 8.4837453e-23
vn 9.7042733e-16 1 -4.2418726e-23
vn 1.9408547e-15 -1 -8.4837453e-23

# Mesh 'Highrise_5' with 218 faces
g Highrise_5
usemtl lambert1
f  1//1 2//1 3//1 4//1
f  5//1 6//1 7//1 8//1
f  9//1 10//1 6//1 5//1
f  11//1 12//1 13//1 14//1
f  15//2 16//2 12//2 11//2
f  17//2 18//2 19//2 20//2
f  21//2 22//2 18//2 17//2
f  23//2 24//2 25//2 26//2
f  27//3 28//3 24//3 23//3
f  29//3 30//3 31//3 32//3
f  33//3 34//3 30//3 29//3
f  35//3 36//3 37//3 38//3
f  39//4 40//4 36//4 35//4
f  41//4 42//4 43//4 44//4
f  45//4 46//4 42//4 41//4
f  4//4 3//4 47//4 48//4
f  49//5 50//5 51//5 52//5
f  53//5 54//5 50//5 49//5
f  55//5 56//5 54//5 53//5
f  57//5 58//5 56//5 55//5
f  50//5 59//5 60//5 51//5
f  61//5 62//5 63//5 64//5
f  65//5 66//5 67//5 68//5
f  58//5 69//5 70//5 56//5
f  59//5 71//5 72//5 60//5
f  73//5 74//5 71//5 59//5
f  70//5 75//5 74//5 73//5
f  69//5 76//5 75//5 70//5
f  71//5 77//5 78//5 72//5
f  74//5 79//5 77//5 71//5
f  75//5 80//5 79//5 74//5
f  76//5 81//5 80//5 75//5
f  33//6 82//6 83//6 84//6
f  29//6 85//6 82//6 33//6
f  32//6 86//6 85//6 29//6
f  87//6 88//6 86//6 32//6
f  82//6 89//6 90//6 83//6
f  85//6 91//6 89//6 82//6
f  86//6 92//6 91//6 85//6
f  88//6 93//6 92//6 86//6
f  89//6 94//6 95//6 90//6
f  91//6 96//6 94//6 89//6
f  92//6 97//6 96//6 91//6
f  93//6 98//6 97//6 92//6
f  94//6 8//6 99//6 95//6
f  96//6 5//6 8//6 94//6
f  97//6 9//6 5//6 96//6
f  98//6 100//6 9//6 97//6
f  101//1 102//1 103//1 104//1
f  104//4 103//4 105//4 106//4
f  107//1 108//1 102//1 101//1
f  109//1 110//1 108//1 107//1
f  111//1 112//1 110//1 109//1
f  113//2 114//2 112//2 111//2
f  106//4 105//4 115//4 116//4
f  117//2 118//2 114//2 113//2
f  116//4 115//4 119//4 120//4
f  121//2 122//2 118//2 117//2
f  123//3 124//3 125//3 126//3
f  120//4 119//4 124//4 123//4
f  126//3 125//3 127//3 128//3
f  128//3 127//3 129//3 130//3
f  131//2 132//2 122//2 121//2
f  130//3 129//3 132//3 131//3
f  133//1 134//1 135//1 136//1
f  136//4 135//4 137//4 138//4
f  139//1 140//1 134//1 133//1
f  141//1 142//1 140//1 139//1
f  143//1 144//1 142//1 141//1
f  145//2 146//2 144//2 143//2
f  138//4 137//4 147//4 148//4
f  149//2 150//2 146//2 145//2
f  148//4 147//4 151//4 152//4
f  153//2 154//2 150//2 149//2
f  155//3 156//3 157//3 158//3
f  152//4 151//4 156//4 155//4
f  158//3 157//3 159//3 160//3
f  160//3 159//3 161//3 162//3
f  163//2 164//2 154//2 153//2
f  162//3 161//3 164//3 163//3
f  134//5 165//5 166//5 135//5
f  135//5 166//5 167//5 137//5
f  140//5 168//5 165//5 134//5
f  142//5 169//5 168//5 140//5
f  144//5 170//5 169//5 142//5
f  146//5 171//5 170//5 144//5
f  137//5 167//5 172//5 147//5
f  150//5 173//5 171//5 146//5
f  147//5 172//5 174//5 151//5
f  154//5 175//5 173//5 150//5
f  156//5 176//5 177//5 157//5
f  151//5 174//5 176//5 156//5
f  157//5 177//5 178//5 159//5
f  159//5 178//5 179//5 161//5
f  164//5 180//5 175//5 154//5
f  161//5 179//5 180//5 164//5
f  165//3 49//3 52//3 166//3
f  166//2 52//2 51//2 167//2
f  168//3 53//3 49//3 165//3
f  169//3 55//3 53//3 168//3
f  170//3 57//3 55//3 169//3
f  171//4 58//4 57//4 170//4
f  167//2 51//2 60//2 172//2
f  173//4 69//4 58//4 171//4
f  172//2 60//2 72//2 174//2
f  175//4 76//4 69//4 173//4
f  176//1 78//1 77//1 177//1
f  174//2 72//2 78//2 176//2
f  177//1 77//1 79//1 178//1
f  178//1 79//1 80//1 179//1
f  180//4 81//4 76//4 175//4
f  179//1 80//1 81//1 180//1
f  7//5 101//5 104//5 181//5
f  136//6 103//6 102//6 133//6
f  181//5 104//5 106//5 182//5
f  138//6 105//6 103//6 136//6
f  6//5 107//5 101//5 7//5
f  133//6 102//6 108//6 139//6
f  10//5 109//5 107//5 6//5
f  139//6 108//6 110//6 141//6
f  183//5 111//5 109//5 10//5
f  141//6 110//6 112//6 143//6
f  184//5 113//5 111//5 183//5
f  143//6 112//6 114//6 145//6
f  182//5 106//5 116//5 185//5
f  148//6 115//6 105//6 138//6
f  186//5 117//5 113//5 184//5
f  145//6 114//6 118//6 149//6
f  185//5 116//5 120//5 187//5
f  152//6 119//6 115//6 148//6
f  188//5 121//5 117//5 186//5
f  149//6 118//6 122//6 153//6
f  189//5 123//5 126//5 34//5
f  158//6 125//6 124//6 155//6
f  187//5 120//5 123//5 189//5
f  155//6 124//6 119//6 152//6
f  34//5 126//5 128//5 30//5
f  160//6 127//6 125//6 158//6
f  30//5 128//5 130//5 31//5
f  162//6 129//6 127//6 160//6
f  190//5 131//5 121//5 188//5
f  153//6 122//6 132//6 163//6
f  31//5 130//5 131//5 190//5
f  163//6 132//6 129//6 162//6
f  8//6 1//6 4//6 99//6
f  7//2 2//2 1//2 8//2
f  181//5 3//5 2//5 7//5
f  99//6 4//6 48//6 95//6
f  182//5 47//5 3//5 181//5
f  95//3 48//3 47//3 182//3
f  100//6 11//6 14//6 9//6
f  10//5 13//5 12//5 183//5
f  9//4 14//4 13//4 10//4
f  98//6 15//6 11//6 100//6
f  184//3 16//3 15//3 98//3
f  183//5 12//5 16//5 184//5
f  87//6 23//6 26//6 88//6
f  188//5 25//5 24//5 190//5
f  88//1 26//1 25//1 188//1
f  32//6 27//6 23//6 87//6
f  31//4 28//4 27//4 32//4
f  190//5 24//5 28//5 31//5
f  84//6 35//6 38//6 33//6
f  34//5 37//5 36//5 189//5
f  33//2 38//2 37//2 34//2
f  83//6 39//6 35//6 84//6
f  187//1 40//1 39//1 83//1
f  189//5 36//5 40//5 187//5
f  54//1 61//1 64//1 50//1
f  59//3 63//3 62//3 73//3
f  50//4 64//4 63//4 59//4
f  56//1 191//1 61//1 54//1
f  70//2 192//2 191//2 56//2
f  73//3 62//3 192//3 70//3
f  191//1 193//1 194//1 61//1
f  192//2 195//2 193//2 191//2
f  62//3 196//3 195//3 192//3
f  61//7 194//7 196//7 62//7
f  193//5 197//5 198//5 194//5
f  195//5 199//5 197//5 193//5
f  196//5 200//5 199//5 195//5
f  194//5 198//5 200//5 196//5
f  197//1 201//1 202//1 198//1
f  199//2 203//2 201//2 197//2
f  200//3 204//3 203//3 199//3
f  198//4 202//4 204//4 200//4
f  201//5 205//5 206//5 202//5
f  203//5 207//5 205//5 201//5
f  204//5 208//5 207//5 203//5
f  202//5 206//5 208//5 204//5
f  205//1 65//1 68//1 206//1
f  207//2 66//2 65//2 205//2
f  208//3 67//3 66//3 207//3
f  206//4 68//4 67//4 208//4
f  90//4 209//4 210//4 83//4
f  187//4 211//4 212//4 185//4
f  83//4 210//4 211//4 187//4
f  95//4 213//4 209//4 90//4
f  182//4 214//4 213//4 95//4
f  185//4 212//4 214//4 182//4
f  209//8 41//8 44//8 210//8
f  211//9 43//9 42//9 212//9
f  210//1 44//1 43//1 211//1
f  213//10 45//10 41//10 209//10
f  214//3 46//3 45//3 213//3
f  212//11 42//11 46//11 214//11
f  93//2 215//2 216//2 98//2
f  184//2 217//2 218//2 186//2
f  98//2 216//2 217//2 184//2
f  88//2 219//2 215//2 93//2
f  188//2 220//2 219//2 88//2
f  186//2 218//2 220//2 188//2
f  215//5 17//5 20//5 216//5
f  217//6 19//6 18//6 218//6
f  216//3 20//3 19//3 217//3
f  219//5 21//5 17//5 215//5
f  220//1 22//1 21//1 219//1
f  218//6 18//6 22//6 220//6

