# File produced by Open Asset Import Library (http://www.assimp.sf.net)
# (assimp v5.0.1588609223)

mtllib result.mtl

# 216 vertex positions
v  706.42188 -0.11275887 -200.83826
v  706.42188 382.9967 -200.83826
v  706.42188 382.9967 -0.83824921
v  706.42188 -0.11275887 -0.83824921
v  682.75043 0.29273295 -190.83824
v  682.75043 373.6022 -190.83824
v  701.52185 373.6022 -190.83826
v  701.52185 0.29273295 -190.83826
v  654.17902 0.29273295 -190.83824
v  654.17902 373.6022 -190.83824
v  672.95044 373.6022 -190.83824
v  672.95044 0.29273295 -190.83824
v  625.6076 0.29273295 -190.83824
v  625.6076 373.6022 -190.83824
v  644.37903 373.6022 -190.83824
v  644.37903 0.29273295 -190.83824
v  597.03613 0.29273295 -190.83824
v  597.03613 373.6022 -190.83824
v  615.80756 373.6022 -190.83824
v  615.80756 0.29273295 -190.83824
v  568.46472 0.29273295 -190.83824
v  568.46472 373.6022 -190.83824
v  587.23615 373.6022 -190.83824
v  587.23615 0.29273295 -190.83824
v  539.89331 0.29273295 -190.83824
v  539.89331 373.6022 -190.83824
v  558.66473 373.6022 -190.83824
v  558.66473 0.29273295 -190.83824
v  511.32187 0.29273295 -190.83823
v  511.32187 373.6022 -190.83823
v  530.09326 373.6022 -190.83824
v  530.09326 0.29273295 -190.83824
v  494.32187 15.687242 -16.638237
v  494.32187 367.19669 -16.638237
v  494.32187 367.19669 -185.03824
v  494.32187 15.687242 -185.03824
v  530.09332 0.29273295 -10.838242
v  530.09332 373.6022 -10.838242
v  511.3219 373.6022 -10.838234
v  511.3219 0.29273295 -10.838234
v  558.66473 0.29273295 -10.838242
v  558.66473 373.6022 -10.838242
v  539.89331 373.6022 -10.838242
v  539.89331 0.29273295 -10.838242
v  587.23615 0.29273295 -10.838242
v  587.23615 373.6022 -10.838242
v  568.46472 373.6022 -10.838242
v  568.46472 0.29273295 -10.838242
v  615.80762 0.29273295 -10.838242
v  615.80762 373.6022 -10.838242
v  597.03619 373.6022 -10.838242
v  597.03619 0.29273295 -10.838242
v  644.37903 0.29273295 -10.838242
v  644.37903 373.6022 -10.838242
v  625.6076 373.6022 -10.838242
v  625.6076 0.29273295 -10.838242
v  672.95044 0.29273295 -10.838242
v  672.95044 373.6022 -10.838242
v  654.17902 373.6022 -10.838242
v  654.17902 0.29273295 -10.838242
v  701.52185 0.29273295 -10.838249
v  701.52185 373.6022 -10.838249
v  682.75049 373.6022 -10.838242
v  682.75049 0.29273295 -10.838242
v  690.62189 400.3967 -148.66838
v  677.85046 400.3967 -148.66838
v  677.85046 400.3967 -53.008106
v  690.62189 400.3967 -53.008106
v  649.27899 400.3967 -148.66838
v  649.27905 400.3967 -53.008102
v  631.70758 400.3967 -148.66838
v  631.70758 400.3967 -53.008102
v  620.70758 376.69669 -196.03824
v  592.13617 376.69669 -196.03824
v  592.13617 376.69669 -5.6382446
v  620.70758 376.69669 -5.6382446
v  563.5647 376.69669 -196.03824
v  563.56476 376.69669 -5.6382446
v  534.99329 376.69669 -196.03824
v  534.99329 376.69669 -5.6382446
v  511.22186 376.69669 -196.03824
v  511.22189 376.69669 -5.638237
v  506.42188 -0.11275887 -200.83823
v  534.99329 -0.11275887 -200.83824
v  534.99329 -0.11275887 -0.83824158
v  506.42188 -0.11275887 -0.83823395
v  563.5647 -0.11275887 -200.83824
v  563.56476 -0.11275887 -0.83824158
v  592.13617 -0.11275887 -200.83824
v  592.13617 -0.11275887 -0.83824158
v  620.70758 -0.11275887 -200.83824
v  620.70758 -0.11275887 -0.83824158
v  649.27899 -0.11275887 -200.83824
v  649.27905 -0.11275887 -0.83824158
v  677.85046 -0.11275887 -200.83824
v  677.85046 -0.11275887 -0.83824158
v  701.62189 382.9967 -196.03824
v  701.62189 382.9967 -5.6382523
v  677.85046 382.9967 -200.83824
v  677.85046 382.9967 -196.03824
v  677.85046 382.9967 -5.6382446
v  677.85046 382.9967 -0.83824158
v  649.27899 382.9967 -200.83824
v  649.27899 382.9967 -196.03824
v  649.27905 382.9967 -5.6382446
v  649.27905 382.9967 -0.83824158
v  620.70758 382.9967 -200.83824
v  620.70758 382.9967 -196.03824
v  620.70758 382.9967 -5.6382446
v  620.70758 382.9967 -0.83824158
v  592.13617 382.9967 -200.83824
v  592.13617 382.9967 -196.03824
v  592.13617 382.9967 -5.6382446
v  592.13617 382.9967 -0.83824158
v  563.5647 382.9967 -200.83824
v  563.5647 382.9967 -196.03824
v  563.56476 382.9967 -5.6382446
v  563.56476 382.9967 -0.83824158
v  534.99329 382.9967 -200.83824
v  534.99329 382.9967 -196.03824
v  534.99329 382.9967 -5.6382446
v  534.99329 382.9967 -0.83824158
v  506.42188 382.9967 -200.83823
v  511.22186 382.9967 -196.03824
v  506.42188 382.9967 -0.83823395
v  511.22189 382.9967 -5.638237
v  701.62189 376.69669 -196.03824
v  701.62189 376.69669 -5.6382523
v  677.85046 376.69669 -196.03824
v  677.85046 376.69669 -5.6382446
v  649.27899 376.69669 -196.03824
v  649.27905 376.69669 -5.6382446
v  682.75043 4.787241 -200.83824
v  701.52185 4.787241 -200.83826
v  682.75043 378.09671 -200.83824
v  701.52185 378.09671 -200.83826
v  654.17902 4.787241 -200.83824
v  672.95044 4.787241 -200.83824
v  654.17902 378.09671 -200.83824
v  672.95044 378.09671 -200.83824
v  625.6076 4.787241 -200.83824
v  644.37903 4.787241 -200.83824
v  625.6076 378.09671 -200.83824
v  644.37903 378.09671 -200.83824
v  597.03613 4.787241 -200.83824
v  615.80756 4.787241 -200.83824
v  597.03613 378.09671 -200.83824
v  615.80756 378.09671 -200.83824
v  568.46472 4.787241 -200.83824
v  587.23615 4.787241 -200.83824
v  568.46472 378.09671 -200.83824
v  587.23615 378.09671 -200.83824
v  539.89331 4.787241 -200.83824
v  558.66473 4.787241 -200.83824
v  539.89331 378.09671 -200.83824
v  558.66473 378.09671 -200.83824
v  511.32187 4.787241 -200.83823
v  530.09326 4.787241 -200.83824
v  511.32187 378.09671 -200.83823
v  530.09326 378.09671 -200.83824
v  530.09332 4.787241 -0.83824158
v  511.3219 4.787241 -0.83823395
v  530.09332 378.09671 -0.83824158
v  511.3219 378.09671 -0.83823395
v  558.66473 4.787241 -0.83824158
v  539.89331 4.787241 -0.83824158
v  558.66473 378.09671 -0.83824158
v  539.89331 378.09671 -0.83824158
v  587.23615 4.787241 -0.83824158
v  568.46472 4.787241 -0.83824158
v  587.23615 378.09671 -0.83824158
v  568.46472 378.09671 -0.83824158
v  615.80762 4.787241 -0.83824158
v  597.03619 4.787241 -0.83824158
v  615.80762 378.09671 -0.83824158
v  597.03619 378.09671 -0.83824158
v  644.37903 4.787241 -0.83824158
v  625.6076 4.787241 -0.83824158
v  644.37903 378.09671 -0.83824158
v  625.6076 378.09671 -0.83824158
v  672.95044 4.787241 -0.83824158
v  654.17902 4.787241 -0.83824158
v  672.95044 378.09671 -0.83824158
v  654.17902 378.09671 -0.83824158
v  701.52185 4.787241 -0.83824921
v  682.75049 4.787241 -0.83824158
v  701.52185 378.09671 -0.83824921
v  682.75049 378.09671 -0.83824158
v  506.42188 15.687242 -16.638237
v  506.42188 15.687242 -185.03824
v  506.42188 367.19669 -16.638237
v  506.42188 367.19669 -185.03824
v  695.72186 376.69669 -153.76839
v  695.72186 376.69669 -47.908108
v  677.85046 376.69669 -153.76839
v  677.85046 376.69669 -47.908108
v  649.27899 376.69669 -153.76837
v  649.27905 376.69669 -47.908104
v  626.6076 376.69669 -153.76837
v  626.6076 376.69669 -47.908104
v  695.72186 390.29669 -153.76839
v  695.72186 390.29669 -47.908108
v  677.85046 390.29669 -153.76839
v  677.85046 390.29669 -47.908108
v  649.27899 390.29669 -153.76837
v  649.27905 390.29669 -47.908104
v  626.6076 390.29669 -153.76837
v  626.6076 390.29669 -47.908104
v  690.62189 390.29669 -148.66838
v  690.62189 390.29669 -53.008106
v  677.85046 390.29669 -148.66838
v  677.85046 390.29669 -53.008106
v  649.27899 390.29669 -148.66838
v  649.27905 390.29669 -53.008102
v  631.70758 390.29669 -148.66838
v  631.70758 390.29669 -53.008102

# 0 UV coordinates

# 15 vertex normals
vn 1 0 -4.3711388e-08
vn -4.3711388e-08 0 -1
vn -1 0 4.3711388e-08
vn 4.3711388e-08 0 1
vn 0 1 0
vn 0 -1 -0
vn 1.7919399e-08 0.91210884 0.40994808
vn -1.7919399e-08 -0.91210884 -0.40994808
vn 1 -7.6134445e-17 -4.3711388e-08
vn -1 7.6134445e-17 4.3711388e-08
vn 1 -3.8067222e-17 -4.3711388e-08
vn -1 3.8067222e-17 4.3711388e-08
vn -1.7919399e-08 0.91210884 -0.40994808
vn 1.7919399e-08 -0.91210884 0.40994808
vn 0 0 0

# Mesh 'Highrise_2' with 222 faces
g Highrise_2
usemtl lambert1
f  1//1 2//1 3//1 4//1
f  5//2 6//2 7//2 8//2
f  9//2 10//2 11//2 12//2
f  13//2 14//2 15//2 16//2
f  17//2 18//2 19//2 20//2
f  21//2 22//2 23//2 24//2
f  25//2 26//2 27//2 28//2
f  29//2 30//2 31//2 32//2
f  33//3 34//3 35//3 36//3
f  37//4 38//4 39//4 40//4
f  41//4 42//4 43//4 44//4
f  45//4 46//4 47//4 48//4
f  49//4 50//4 51//4 52//4
f  53//4 54//4 55//4 56//4
f  57//4 58//4 59//4 60//4
f  61//4 62//4 63//4 64//4
f  65//5 66//5 67//5 68//5
f  66//5 69//5 70//5 67//5
f  69//5 71//5 72//5 70//5
f  73//5 74//5 75//5 76//5
f  74//5 77//5 78//5 75//5
f  77//5 79//5 80//5 78//5
f  79//5 81//5 82//5 80//5
f  83//6 84//6 85//6 86//6
f  84//6 87//6 88//6 85//6
f  87//6 89//6 90//6 88//6
f  89//6 91//6 92//6 90//6
f  91//6 93//6 94//6 92//6
f  93//6 95//6 96//6 94//6
f  95//6 1//6 4//6 96//6
f  2//5 97//5 98//5 3//5
f  99//5 100//5 97//5 2//5
f  3//5 98//5 101//5 102//5
f  103//5 104//5 100//5 99//5
f  102//5 101//5 105//5 106//5
f  107//5 108//5 104//5 103//5
f  106//5 105//5 109//5 110//5
f  111//5 112//5 108//5 107//5
f  110//5 109//5 113//5 114//5
f  115//5 116//5 112//5 111//5
f  114//5 113//5 117//5 118//5
f  119//5 120//5 116//5 115//5
f  118//5 117//5 121//5 122//5
f  123//5 124//5 120//5 119//5
f  125//5 126//5 124//5 123//5
f  122//5 121//5 126//5 125//5
f  97//3 127//3 128//3 98//3
f  100//4 129//4 127//4 97//4
f  98//2 128//2 130//2 101//2
f  104//4 131//4 129//4 100//4
f  101//2 130//2 132//2 105//2
f  108//4 73//4 131//4 104//4
f  105//2 132//2 76//2 109//2
f  112//4 74//4 73//4 108//4
f  109//2 76//2 75//2 113//2
f  116//4 77//4 74//4 112//4
f  113//2 75//2 78//2 117//2
f  120//4 79//4 77//4 116//4
f  117//2 78//2 80//2 121//2
f  124//4 81//4 79//4 120//4
f  126//1 82//1 81//1 124//1
f  121//2 80//2 82//2 126//2
f  95//2 133//2 134//2 1//2
f  99//2 135//2 133//2 95//2
f  2//2 136//2 135//2 99//2
f  1//2 134//2 136//2 2//2
f  93//2 137//2 138//2 95//2
f  103//2 139//2 137//2 93//2
f  99//2 140//2 139//2 103//2
f  95//2 138//2 140//2 99//2
f  91//2 141//2 142//2 93//2
f  107//2 143//2 141//2 91//2
f  103//2 144//2 143//2 107//2
f  93//2 142//2 144//2 103//2
f  89//2 145//2 146//2 91//2
f  111//2 147//2 145//2 89//2
f  107//2 148//2 147//2 111//2
f  91//2 146//2 148//2 107//2
f  87//2 149//2 150//2 89//2
f  115//2 151//2 149//2 87//2
f  111//2 152//2 151//2 115//2
f  89//2 150//2 152//2 111//2
f  84//2 153//2 154//2 87//2
f  119//2 155//2 153//2 84//2
f  115//2 156//2 155//2 119//2
f  87//2 154//2 156//2 115//2
f  83//2 157//2 158//2 84//2
f  123//2 159//2 157//2 83//2
f  119//2 160//2 159//2 123//2
f  84//2 158//2 160//2 119//2
f  85//4 161//4 162//4 86//4
f  122//4 163//4 161//4 85//4
f  125//4 164//4 163//4 122//4
f  86//4 162//4 164//4 125//4
f  88//4 165//4 166//4 85//4
f  118//4 167//4 165//4 88//4
f  122//4 168//4 167//4 118//4
f  85//4 166//4 168//4 122//4
f  90//4 169//4 170//4 88//4
f  114//4 171//4 169//4 90//4
f  118//4 172//4 171//4 114//4
f  88//4 170//4 172//4 118//4
f  92//4 173//4 174//4 90//4
f  110//4 175//4 173//4 92//4
f  114//4 176//4 175//4 110//4
f  90//4 174//4 176//4 114//4
f  94//4 177//4 178//4 92//4
f  106//4 179//4 177//4 94//4
f  110//4 180//4 179//4 106//4
f  92//4 178//4 180//4 110//4
f  96//4 181//4 182//4 94//4
f  102//4 183//4 181//4 96//4
f  106//4 184//4 183//4 102//4
f  94//4 182//4 184//4 106//4
f  4//4 185//4 186//4 96//4
f  3//4 187//4 185//4 4//4
f  102//4 188//4 187//4 3//4
f  96//4 186//4 188//4 102//4
f  133//7 5//7 8//7 134//7
f  135//1 6//1 5//1 133//1
f  136//8 7//8 6//8 135//8
f  134//3 8//3 7//3 136//3
f  137//7 9//7 12//7 138//7
f  139//9 10//9 9//9 137//9
f  140//8 11//8 10//8 139//8
f  138//10 12//10 11//10 140//10
f  141//7 13//7 16//7 142//7
f  143//11 14//11 13//11 141//11
f  144//8 15//8 14//8 143//8
f  142//10 16//10 15//10 144//10
f  145//7 17//7 20//7 146//7
f  147//11 18//11 17//11 145//11
f  148//8 19//8 18//8 147//8
f  146//12 20//12 19//12 148//12
f  149//7 21//7 24//7 150//7
f  151//9 22//9 21//9 149//9
f  152//8 23//8 22//8 151//8
f  150//12 24//12 23//12 152//12
f  153//7 25//7 28//7 154//7
f  155//9 26//9 25//9 153//9
f  156//8 27//8 26//8 155//8
f  154//10 28//10 27//10 156//10
f  157//7 29//7 32//7 158//7
f  159//1 30//1 29//1 157//1
f  160//8 31//8 30//8 159//8
f  158//3 32//3 31//3 160//3
f  161//13 37//13 40//13 162//13
f  163//3 38//3 37//3 161//3
f  164//14 39//14 38//14 163//14
f  162//1 40//1 39//1 164//1
f  165//13 41//13 44//13 166//13
f  167//10 42//10 41//10 165//10
f  168//14 43//14 42//14 167//14
f  166//9 44//9 43//9 168//9
f  169//13 45//13 48//13 170//13
f  171//12 46//12 45//12 169//12
f  172//14 47//14 46//14 171//14
f  170//9 48//9 47//9 172//9
f  173//13 49//13 52//13 174//13
f  175//12 50//12 49//12 173//12
f  176//14 51//14 50//14 175//14
f  174//11 52//11 51//11 176//11
f  177//13 53//13 56//13 178//13
f  179//10 54//10 53//10 177//10
f  180//14 55//14 54//14 179//14
f  178//11 56//11 55//11 180//11
f  181//13 57//13 60//13 182//13
f  183//10 58//10 57//10 181//10
f  184//14 59//14 58//14 183//14
f  182//9 60//9 59//9 184//9
f  185//13 61//13 64//13 186//13
f  187//3 62//3 61//3 185//3
f  188//14 63//14 62//14 187//14
f  186//1 64//1 63//1 188//1
f  86//3 189//3 190//3 83//3
f  125//3 191//3 189//3 86//3
f  123//3 192//3 191//3 125//3
f  83//3 190//3 192//3 123//3
f  189//6 33//6 36//6 190//6
f  191//4 34//4 33//4 189//4
f  192//5 35//5 34//5 191//5
f  190//2 36//2 35//2 192//2
f  127//5 193//5 194//5 128//5
f  129//5 195//5 193//5 127//5
f  128//5 194//5 196//5 130//5
f  131//5 197//5 195//5 129//5
f  130//5 196//5 198//5 132//5
f  73//5 199//5 197//5 131//5
f  76//5 200//5 199//5 73//5
f  132//5 198//5 200//5 76//5
f  193//1 201//1 202//1 194//1
f  195//2 203//2 201//2 193//2
f  194//4 202//4 204//4 196//4
f  197//2 205//2 203//2 195//2
f  196//4 204//4 206//4 198//4
f  199//2 207//2 205//2 197//2
f  200//3 208//3 207//3 199//3
f  198//4 206//4 208//4 200//4
f  201//5 209//5 210//5 202//5
f  203//5 211//5 209//5 201//5
f  202//5 210//5 212//5 204//5
f  205//5 213//5 211//5 203//5
f  204//5 212//5 214//5 206//5
f  207//5 215//5 213//5 205//5
f  208//5 216//5 215//5 207//5
f  206//5 214//5 216//5 208//5
f  209//1 65//1 68//1 210//1
f  211//2 66//2 65//2 209//2
f  210//4 68//4 67//4 212//4
f  213//2 69//2 66//2 211//2
f  212//4 67//4 70//4 214//4
f  215//2 71//2 69//2 213//2
f  216//3 72//3 71//3 215//3
f  214//4 70//4 72//4 216//4
f  65//15 65//15 68//15 68//15
f  66//15 66//15 65//15 65//15
f  68//15 68//15 67//15 67//15
f  69//15 69//15 66//15 66//15
f  67//15 67//15 70//15 70//15
f  71//15 71//15 69//15 69//15
f  72//15 72//15 71//15 71//15
f  70//15 70//15 72//15 72//15

