# File produced by Open Asset Import Library (http://www.assimp.sf.net)
# (assimp v5.0.1588609223)

mtllib result.mtl

# 72 vertex positions
v  1701.1946 36.834549 -21.806301
v  1701.1946 442.28903 -21.806301
v  1621.2148 442.28903 -21.806301
v  1621.2148 36.834549 -21.806301
v  1736.0291 24.834547 -112.4063
v  1736.0291 454.28903 -112.4063
v  1736.0291 454.28903 -5.8063011
v  1736.0291 24.834547 -5.8063011
v  1621.2148 36.834549 -96.406296
v  1621.2148 442.28903 -96.406296
v  1701.1946 442.28903 -96.406296
v  1701.1946 36.834549 -96.406296
v  1586.3804 24.834547 -5.8063011
v  1586.3804 454.28903 -5.8063011
v  1586.3804 454.28903 -112.4063
v  1586.3804 24.834547 -112.4063
v  1710.129 478.08902 -31.706301
v  1710.129 478.08902 -86.506302
v  1612.2804 478.08902 -86.506302
v  1612.2804 478.08902 -31.706301
v  1732.4291 1.034547 -108.8063
v  1732.4291 1.034547 -9.4062996
v  1589.9803 1.034547 -9.4062996
v  1589.9803 1.034547 -108.8063
v  1732.4291 478.08902 -9.4062996
v  1726.8291 478.08902 -15.006302
v  1595.5803 478.08902 -15.006302
v  1589.9803 478.08902 -9.4062996
v  1732.4291 478.08902 -108.8063
v  1726.8291 478.08902 -103.2063
v  1589.9803 478.08902 -108.8063
v  1595.5803 478.08902 -103.2063
v  1726.8291 471.78903 -15.006302
v  1595.5803 471.78903 -15.006302
v  1726.8291 471.78903 -103.2063
v  1595.5803 471.78903 -103.2063
v  1732.4291 20.134546 -9.4062996
v  1589.9803 20.134546 -9.4062996
v  1589.9803 458.98901 -9.4062996
v  1732.4291 458.98901 -9.4062996
v  1732.4291 20.134546 -108.8063
v  1732.4291 458.98901 -108.8063
v  1589.9803 20.134546 -108.8063
v  1589.9803 458.98901 -108.8063
v  1732.4291 24.834547 -9.4062996
v  1589.9803 24.834547 -9.4062996
v  1595.1804 458.98901 -14.6063
v  1595.1804 454.28903 -14.6063
v  1727.229 454.28903 -14.6063
v  1727.229 458.98901 -14.6063
v  1732.4291 24.834547 -108.8063
v  1727.229 454.28903 -103.6063
v  1727.229 458.98901 -103.6063
v  1589.9803 24.834547 -108.8063
v  1595.1804 454.28903 -103.6063
v  1595.1804 458.98901 -103.6063
v  1589.9803 454.28903 -9.4062996
v  1732.4291 454.28903 -9.4062996
v  1732.4291 454.28903 -108.8063
v  1589.9803 454.28903 -108.8063
v  1710.129 471.78903 -31.706301
v  1612.2804 471.78903 -31.706301
v  1710.129 471.78903 -86.506302
v  1612.2804 471.78903 -86.506302
v  1701.1946 36.834549 -5.8063011
v  1621.2148 36.834549 -5.8063011
v  1701.1946 442.28903 -5.8063011
v  1621.2148 442.28903 -5.8063011
v  1621.2148 36.834549 -112.4063
v  1701.1946 36.834549 -112.4063
v  1621.2148 442.28903 -112.4063
v  1701.1946 442.28903 -112.4063

# 0 UV coordinates

# 6 vertex normals
vn 0 0 1
vn 1 0 0
vn 0 0 -1
vn -1 0 0
vn 0 1 0
vn 0 -1 0

# Mesh 'Highrise_4' with 70 faces
g Highrise_4
usemtl lambert1
f  1//1 2//1 3//1 4//1
f  5//2 6//2 7//2 8//2
f  9//3 10//3 11//3 12//3
f  13//4 14//4 15//4 16//4
f  17//5 18//5 19//5 20//5
f  21//6 22//6 23//6 24//6
f  25//5 26//5 27//5 28//5
f  29//5 30//5 26//5 25//5
f  31//5 32//5 30//5 29//5
f  28//5 27//5 32//5 31//5
f  26//3 33//3 34//3 27//3
f  30//4 35//4 33//4 26//4
f  32//1 36//1 35//1 30//1
f  27//2 34//2 36//2 32//2
f  22//1 37//1 38//1 23//1
f  28//1 39//1 40//1 25//1
f  21//2 41//2 37//2 22//2
f  25//2 40//2 42//2 29//2
f  24//3 43//3 41//3 21//3
f  29//3 42//3 44//3 31//3
f  23//4 38//4 43//4 24//4
f  31//4 44//4 39//4 28//4
f  37//1 45//1 46//1 38//1
f  47//1 48//1 49//1 50//1
f  41//2 51//2 45//2 37//2
f  50//2 49//2 52//2 53//2
f  43//3 54//3 51//3 41//3
f  53//3 52//3 55//3 56//3
f  38//4 46//4 54//4 43//4
f  56//4 55//4 48//4 47//4
f  45//6 8//6 13//6 46//6
f  57//5 14//5 7//5 58//5
f  51//6 5//6 8//6 45//6
f  58//5 7//5 6//5 59//5
f  54//6 16//6 5//6 51//6
f  59//5 6//5 15//5 60//5
f  46//6 13//6 16//6 54//6
f  60//5 15//5 14//5 57//5
f  39//6 47//6 50//6 40//6
f  58//5 49//5 48//5 57//5
f  40//6 50//6 53//6 42//6
f  59//5 52//5 49//5 58//5
f  42//6 53//6 56//6 44//6
f  60//5 55//5 52//5 59//5
f  44//6 56//6 47//6 39//6
f  57//5 48//5 55//5 60//5
f  33//5 61//5 62//5 34//5
f  35//5 63//5 61//5 33//5
f  36//5 64//5 63//5 35//5
f  34//5 62//5 64//5 36//5
f  61//1 17//1 20//1 62//1
f  63//2 18//2 17//2 61//2
f  64//3 19//3 18//3 63//3
f  62//4 20//4 19//4 64//4
f  8//1 65//1 66//1 13//1
f  7//1 67//1 65//1 8//1
f  14//1 68//1 67//1 7//1
f  13//1 66//1 68//1 14//1
f  16//3 69//3 70//3 5//3
f  15//3 71//3 69//3 16//3
f  6//3 72//3 71//3 15//3
f  5//3 70//3 72//3 6//3
f  65//5 1//5 4//5 66//5
f  67//4 2//4 1//4 65//4
f  68//6 3//6 2//6 67//6
f  66//2 4//2 3//2 68//2
f  69//5 9//5 12//5 70//5
f  71//2 10//2 9//2 69//2
f  72//6 11//6 10//6 71//6
f  70//4 12//4 11//4 72//4

